<svg xmlns="http://www.w3.org/2000/svg" viewBox="0 0 259.2 259.2"><defs><style>.cls-1{fill:#fff;}</style></defs><g id="Capa_2" data-name="Capa 2"><g id="Capa_1-2" data-name="Capa 1"><path class="cls-1" d="M259.2,259.2H0V0H259.2ZM175.29,76.44c-.73,1.29-1.46,2.59-2.2,3.88l0,0L170,85.16l.14.07,1.36-1.1,6.6-8.56c1.28-1.71,2.59-3.39,3.83-5.13a20.65,20.65,0,0,0,1.23-2.27l2.14-4a87.07,87.07,0,0,0,6.33-11.77,10.93,10.93,0,0,0-1.31,2c-.86,1.42-1.75,2.83-2.62,4.25l-2.14,2.61c-1.61,2.12-3.23,4.23-4.8,6.37a8.43,8.43,0,0,0-.73,1.58l-1.9,2.6-2.91,4.72ZM113.63,38.12a9.52,9.52,0,0,0,.7-1.7,2.48,2.48,0,0,1,1.13-1.93h.18c1-.85,2.54-1,3.41-2.1-1.64.27-3.2.63-4.75,1a.78.78,0,0,0-.45.47c-.18.76-.29,1.54-.43,2.31-.92,2.69,0,5.07,1.25,7.4,1,2,3,2.28,4.88,2.81,1,.28,2.34-.27,2.92,1.1,0,0,.13,0,.25,0l-.25-.54c3.51.12,6.79.8,9.12,3.88l-.9-1.81.18-.18,1.06.69a.81.81,0,0,0-.17-.7c-1-1.3-2.07-2.58-3-3.92a2.57,2.57,0,0,1-.49-1.43,2.59,2.59,0,0,0-1.95-2.43s-.11.09-.18.16c.3,1,.59,2,.89,3.06l-1.9-3.74a6,6,0,0,0,1.76,4l1.7,2.8.65-.88.78,1.44-.3.32-3.8-2-2.32-5.58-.32.15c.89,1.8.92,4,2.68,5.4-.44,1-.66.21-.83-.13-.64-1.31-1.24-2.64-1.84-4-.43-.92-.83-1.84-1.25-2.76l-.32.15,2.74,6.6a2.28,2.28,0,0,1-1.07-1c-.38-.83-.57-1.75-.92-2.59s-.49-2.13-1.83-2.51l.1,1-.11,0-1.14-2.64-.27.06v2l-1.2-2.2-.25.09c.59,2.37,1.18,4.73,1.76,7.1l-.41.09c-.63-2.12-1.23-4.25-1.91-6.36a8.71,8.71,0,0,0-.88-1.57l-.21.12.7,2.61-.23.06-.75-1.67-.41.21,3.07,6.32-.25.32a12.66,12.66,0,0,1-2.51-1.76,7.61,7.61,0,0,1-2-5.81Zm47.94,28.22.94-1.72-.89,4.88.36.07c.35-1.49.72-3,1-4.47,0-.1-.36-.28-.56-.42l.93-3.85-.45-.11q-.66,2.82-1.33,5.66l-.48-.7-.37.43a2.43,2.43,0,0,1,.24-.79,6.32,6.32,0,0,0,1.11-3.76c-2.27,2-3,4.8-3.19,7.85a2,2,0,0,0,.71-.76c.41-.85.76-1.71,1.14-2.58a4.71,4.71,0,0,1,0,1.06c-.2,1-.45,1.92-.67,2.87l.39.11ZM123.22,230.9l4.56-2.4a10.45,10.45,0,0,0,1.33-.46c1.85-.92,3.7-1.84,5.52-2.83,8-4.35,16-8.57,23.91-13.12,8.94-5.18,17.72-10.65,26.57-16,2.44-1.47,4.87-3,7.3-4.46-9.52,6.36-18.83,13-27.74,20.21a473.65,473.65,0,0,1,87-51.6l-.19-.36-21.11,9.76-.07-.14q4.74-2.49,9.46-5l-.17-.32-14.81,7.53-.17-.31,26.19-14.68-16.35,7.05-.14-.28,3.24-1.59-.1-.22-4.75,1.92c4.05-2.19,8.2-4.13,12.34-6.09a7.42,7.42,0,0,0,1.08-.81l4.77-1.59-.09-.24-4.66,1.85-14.88,6.49-.12-.23,17.67-8.84-.14-.33-15.49,5.74-.14-.33,15.6-7-.09-.22L231.64,159l-.51-1.14c2.77-1.55,5.5-3,8.18-4.59s5.21-3.1,7.81-4.65l1.79-1.32-.21-.34-3.29.72c-2.64.27-4.88,1.94-7.64,2-1.55,0-3.08.93-4.62,1.43l-.09-.2,13.13-8-.24-.44L233.36,148l-.07-.14,2.38-1.45-.47-.66-4.77,1.6-.08-.19,6.76-3.47a45.34,45.34,0,0,0-4.79,1.52,10.72,10.72,0,0,0-1.44.8h0a4.69,4.69,0,0,1,.8-1.13c.88-.71,1.84-1.32,2.77-2l-.11-.37-2-.16c1.09-.88,2.32-1.85,3.51-2.85.45-.37.83-.83,1.24-1.24l.67-.65-.75-.49.26-.38-7.57,2.07c1-.79,1.78-1.51,2.66-2.12s2.49-.42,2.86-2l-3.07.48,2.87-2-1.55-.1-.24-1.19h0l.47-.28-.09-.28-4.21.84c1-1,2.31-1.47,2-2.93l1.2-.71,2.38-2.77-3,.57,1.7-1.39-.18-.35-5.68,1.76c2.34-2.35,5.37-3.22,8.55-3.79a9,9,0,0,0-2,.28c-2.28.59-4.57,1.11-6.8,1.85-5.61,1.84-11.24,3.65-16.75,5.74-2.67,1-5.15,2.5-8.22,2.38,1.33-.63,2.6-1.27,3.91-1.84q5-2.17,10.05-4.29A16.61,16.61,0,0,1,219,126c.19-.05.45.18.81.33l1.35-1.06-.18-.39a15.15,15.15,0,0,1-2,.43,3.88,3.88,0,0,1-1.8-.15c-1.19-.5-2.32-1.09-3.68-.62a13.53,13.53,0,0,1-1.43.34l-.15-.26c2.46-1.17,3.2-4.11,5.91-5l-.27-.43-2.61.6,2.48-1.61-.43-1.54-3.4.7c1.56-1,2.87-1.81,4.16-2.65.18-.12.42-.35.42-.52s-.29-.33-.49-.52l2.18-1.14-.17-.47-8.35,2.22,7.1-3.46-.18-.46-3,.75,4.69-2.72-.22-.47a149.34,149.34,0,0,0-14.94,4,28.9,28.9,0,0,1,3.74-1.55,3,3,0,0,0,2-1.47c.82-.28,1.65-.54,2.46-.85,2.41-.91,4.81-1.85,7.21-2.78l.12.29L217.06,107l.11.24L222,105l-.47-.87,2-1-.16-.32,8-1.56-.09-.39a173.37,173.37,0,0,0-30.2,7.73c2.79,0,5.32-1.43,7.83-1.6l-19.68,8,.11.28.62-.24c4.4-1.7,8.76-3.47,13.19-5.07,2.9-1,5.9-1.84,8.86-2.74a.19.19,0,0,1,.13.07l1.45-.3a3,3,0,0,1-1.15.78c-.64.35-1.27.72-1.91,1.09s-1.2.59-1.81.86l-14.55,6.15-4.76,2.06.05.12,16.75-6.28c-7,3.09-14,6.07-21,9.1-1.42.61-2.76,1.43-4.13,2.16a.38.38,0,0,0,0,.12s0,.06.19.3c9.23-5.11,19.15-8.62,29.19-11.81-6.65,2.61-13.51,4.69-19.86,8.08l1.58-.53.07.18-11.2,5.3.09.21,11.12-5.05.12.26-6.69,3.18c9.49-3.85,18.68-8.48,28.63-11.15-10.94,5.08-22.44,9-32.74,15.43,7.88-3.12,15.5-6.91,23.66-9.33l-25.52,11.07c-.23-2-.28-3.68.6-5.35l-.71-1.15-.43,1.66-.44,0a10.91,10.91,0,0,1,0-3.42,15.59,15.59,0,0,1,2.11-3.85c1.67-2.49,3.51-4.85,5.11-7.39a4.5,4.5,0,0,1,3.5-2.5,8.07,8.07,0,0,0,1.38-.42l5-1.38,0,.16-7.67,5.45.24.34c.29-.17.6-.32.87-.51,2.19-1.53,4.45-3,6.52-4.65,1.62-1.31,3.57-1.61,5.41-2.15,2.71-.81,5.52-1.29,8.29-1.86a35.48,35.48,0,0,1,6.76-1.23,46.19,46.19,0,0,0,6.88-.84,6,6,0,0,0,.91-.29l-.09-.36-4.29.67-.24-.87,2.28-.41-.09-.45-17.55,3.41c.87-.57,1.61-1.08,2.37-1.56,2.28-1.46,4.59-2.88,6.85-4.36,4.75-3.1,9.43-6.3,15.14-8-.79.07-1.5.17-1-.73-1.21.51-2.43,1-3.6,1.52q-5.66,2.63-11.27,5.29a5.8,5.8,0,0,1,1.07-.92c3.74-1.89,7.49-3.75,11.24-5.61l1.05-.55-.17-.35a9.74,9.74,0,0,0-1,.37c-2.73,1.32-5.53,2.52-8.17,4-5,2.82-9.8,5.82-14.71,8.72-1.95,1.16-4,2.2-5.9,3.37a6.77,6.77,0,0,0-1.24,1.36l.28.27c.47-.28.94-.55,1.4-.85,1.7-1.11,3.33-2.32,5.08-3.33,3.31-1.92,6.69-3.73,10-5.61a6.17,6.17,0,0,0,1-.92,3.57,3.57,0,0,0,1,0c.63-.24,1.23-.57,1.83-.87l.2.37-17.32,10.25.43,0a3.7,3.7,0,0,1-1.38.78c-2.89.89-5.78,1.78-8.68,2.63a6.48,6.48,0,0,1-1.55,0c1.1-1.56,2-2.81,2.85-4.07l.23.17-.78,1.07.26.18,1.83-2.59,1.23-.72,5.45-3.11.23.19-1.41,1,.18.17,14-12.81-.21,1,.33.1,8.94-25-2.67,2.48c-.26-2.2-1.66-3.73-2.89-5.39a12.27,12.27,0,0,1-1.1-2.44l.43-.25c.87.91,1.7,1.86,2.62,2.71s1.89,1.55,2.83,2.33l.25-.28c-1.76-1.92-4.76-2.92-4.81-6.32.35.72.62,1.3.89,1.88l.29-.16c-.69-4.26-1.58-7.26-2.48-8.08l1.14,3.88-3.06-5.55-.33.1,1.74,8c-1.53-.37-2,.7-2.78,1.2-1.67.35-2.43,1.78-3.43,2.91l3.4-2.93c.37-.14.75-.26,1.11-.42,1.22-.55,1.55-.41,1.85.86s.59,2.57.89,3.86l.15,0,.16-1.09c.65.94,1.16,1.69,1.7,2.43a4.25,4.25,0,0,1,.74,4c-.82,2.5-1.54,5-2.35,7.52-.58,1.81-1.25,3.59-1.87,5.38l-.41.08a6.51,6.51,0,0,0-3.05-7.3l2,.24a10.56,10.56,0,0,0-5.86-.48,7.06,7.06,0,0,0,1.58.21,5.34,5.34,0,0,1,4.76,4.15,24.66,24.66,0,0,1,.28,3,6,6,0,0,1-2.38,5.33A126.83,126.83,0,0,0,193.07,99.3c-.9.94-1.83,1.87-2.74,2.8a3.93,3.93,0,0,0-1.18.5c-.68.61-1.27,1.32-1.89,2-.19.2-.55.39-.56.6-.07,1.65-1.25,2.55-2.45,3.63l1-.11c-.69,2-2.33,3.41-3.23,5.29s-2.2,3.58-3.27,5.38-2.09,3.64-3.13,5.47l.41.24,2-3.08c.15,1.2,1.11,2.47-.72,3.4l1.21-.18c.21,1.41.41,2.75.6,4-1,1-1.75.72-2.42-.17-.11-.14-.32-.2-.48-.31l0,.05-2.67-3.28-2.25-2.26-1.72-2.13a37,37,0,0,0-3.74-4.5c-2.93-2.62-6.05-5-9.12-7.49a4.92,4.92,0,0,0-1.27-.52l-.66-.35a5.08,5.08,0,0,0-.84-.94c-.9-.64-1.86-1.21-2.79-1.81l-5.92-2.66,0,0a23.83,23.83,0,0,0-3.52-1.55c-4.72-1.26-9.43-2.6-14.22-3.57a148.27,148.27,0,0,0-21.33-2.82c-.79,0-1.59,0-2.37-.14a1,1,0,0,1-.77-.51.91.91,0,0,1,.31-.85c1.42-.69,2.86-1.32,4.32-1.93a7.63,7.63,0,0,1,1.32-.27,6.21,6.21,0,0,0-5.43-.4,8.94,8.94,0,0,1-.12-.94l.06-8.24a2.88,2.88,0,0,0-.08-.93c-.65-1.88-.77-3.69.68-5.3,2.73-3,6.27-4.59,10-5.84l3.18-1-.13-.38c-2.28.79-4.64,1.42-6.82,2.43a69.67,69.67,0,0,0-6.12,3.6c.56-1.74,1.84-3.42,1.62-5.5l-.33-.18L103,72.82l.36-6.43-1.52,4.31-.29-.09v-7l-.22-.08-.9,2.9c-.36-.21-1-.45-1-.63a3.76,3.76,0,0,0-.81-2.62,13.88,13.88,0,0,1-1.1-2.46,14,14,0,0,0-.89,1.89c-.25.86-.38,1.76-.57,2.63-.25-.22-.64-.4-.74-.67a19.64,19.64,0,0,1-1-3.55c-.35-2.45-.52-4.93-.72-7-1.8,4.26,3.91,18.48,6.93,20.85-.17-.32-.23-.44-.3-.55-.9-1.5-1.87-3-2.68-4.49a26.07,26.07,0,0,1-1.34-3.44,5.5,5.5,0,0,1-.16-1.15l.55-1.32,1,3.74.21-2.34.33,0v4.72l.53-.46.66,1.1.13-2.2h.37v3.79l.25,0,.48-3.38.31,0,.34,5.58,1.18-1.63.19.16-.37,2.49a2.23,2.23,0,0,0,.78-1c.18-.35.38-.69.58-1l.35,0c-3.63,5.47-1.84,11.54-2.46,17a6.74,6.74,0,0,1,1.15.43c-.21,1.25.54,2.68-.7,3.77-.24.2-.2.71-.29,1.06L105,95l.14.35a5.13,5.13,0,0,0-4,2.43l-1.59-1.3a63.09,63.09,0,0,0-2.69,6.24c-1.36,4.25-2.47,8.59-3.74,12.87-.4,1.36-1.17,2.63-1.49,4a54,54,0,0,0-1.39,7.87c-.11,1.36-1.09,2.36-.9,3.89.21,1.7-.49,3.5-.73,5.26-.15,1.06-.19,2.13-.3,3.46l.84-1,.39.18-1.4,3.73.34.16,1.1-2.06.36.13-1.51,4.9.37.11.54-.91c.36,3.1-1.16,5.62-2.11,8.29L86,155.59,74.16,165.94l-.5.33a1.78,1.78,0,0,1-2.55,0c-3.59-3.11-8.06-4.62-12.28-6.57-.06,0-.18.06-.38.14l.82.53a.72.72,0,0,1-.48.06,1.82,1.82,0,0,0-.46.11,22,22,0,0,1,12.13,7.7,33.84,33.84,0,0,0-10.75-5.45,4.25,4.25,0,0,0,.52.44c.48.21,1,.43,1.43.61a23.6,23.6,0,0,1,8.15,4.92c2.67,2.5,5.23,5.13,7.81,7.74a6.92,6.92,0,0,1,.82,1.49c1-.7,1.08.83,1.72,1.23.31.19.28.94.41,1.47l.84-.45c1.24,2,2.42,3.86,3.65,5.75,2.33,3.61,5,7,7,10.83,3,6,5.66,12.2,8.25,18.41,1.62,3.89,3,7.92,4.24,11.94.63,2,1.81,4,.58,6.16,0,0,.1.1.21.21l.77-.35.35.18a5.32,5.32,0,0,1-.67,1.63q-6.89,7.41-13.84,14.76c-1.3,1.37-2.63,2.7-4,4.06l.27.26c4.78-4.12,8.88-8.94,13.33-13.4a22.74,22.74,0,0,1-2.94,4.55c-2.22,2.38-4.67,4.56-7,6.83-.19.18-.37.39-.56.58l.38.37c6.11-4.31,10.31-10.56,15.64-16.11L109,247.58l.38-.07c-.26-1.59-.55-3.18-.77-4.78a2.27,2.27,0,0,1,.12-1.48c1.42-1.81,2.94-3.55,4.42-5.31.94-.4,1.92-.73,2.83-1.2C118.4,233.49,120.8,232.18,123.22,230.9ZM119.17,65c-.16.28-.53.7-.45.82.56.83,1.21,1.59,1.83,2.38l.32-.28a7.69,7.69,0,0,1-.61-.8c-.38-.69-.73-1.41-1.09-2.12L111.78,57c-.15.25-.16.39-.09.47,1.46,1.78,2.86,3.63,4.44,5.31A21.09,21.09,0,0,0,119.17,65ZM140.36,40l-.41.19a1.8,1.8,0,0,0-.55.21c-2.18,1.82-3.39,4.29-4.48,6.82a5.38,5.38,0,0,0-.25,1.07l-.46-.05V43.52h-.36l-.18,3.16c0,.27-.15.6,0,.82a2.77,2.77,0,0,1,.09,2.74,13.16,13.16,0,0,0-1.26,4.61l1.12-3.21.24.07c-.11.64-.23,1.27-.35,1.9v0l-.81,1.85.9.09-2.21,4.79A6,6,0,0,0,133,58.26a67.88,67.88,0,0,1,2.62-6.39,5.24,5.24,0,0,0,.67-4.41l-.82,1.67-.49-.24c.43-.74.86-1.48,1.31-2.21.12-.2.51-.46.48-.49-.56-.83.28-1.35.42-2l.31-.34c.35-.24.82-.4,1-.72a13.11,13.11,0,0,1,5-4.13,17.4,17.4,0,0,0,1.53-1.06l-.16-.26a13,13,0,0,0-1.78.65C142.18,38.83,141.28,39.43,140.36,40Zm8,51.12c1.53.81,3.06,1.62,4.59,2.45.8.44,1.58.93,2.37,1.4a5.53,5.53,0,0,0-1.87-1.45c-1.69-.82-3.41-1.59-5.12-2.37a2.4,2.4,0,0,0-.59-.47,35.14,35.14,0,0,0-15.92-3c-2.44.15-4.86.54-7.29.82.14.31.25.37.35.36a5.58,5.58,0,0,0,.69-.13,34.88,34.88,0,0,1,17.25.52C144.71,89.85,146.54,90.5,148.39,91.11Zm44.1-45.89L187.58,43l-.12.29c.71.33,1.4.71,2.13,1,.94.35,1.92.63,2.88.94l1.78,1.13q-.33-9.24-.65-18.46c-.51,5.87.07,11.72.3,17.69L191.57,44C191.76,44.24,192.12,44.73,192.49,45.22Zm-39.08-4a4.8,4.8,0,0,1,1.36,5c-.75,2.8-.31,5.49.13,8.23.2-2.2.21-4.4.2-6.6,0-1.78.71-3.6-.47-5.52l1.38.7a12.31,12.31,0,0,1-2-2.36,4.2,4.2,0,0,0-2.56-2.31l-.07-.05a10.8,10.8,0,0,1-2.15-.89c-4.9-3.46-9.54-7.27-14.24-11.13l2.46-1.23a4.19,4.19,0,0,0-3.83.41,39.66,39.66,0,0,1-3.84,1.83c-1.72.66-3.5,1.17-5.25,1.74l.1.34,6.24-2,.18.3c-2.1,2.62-4.26,5.2-5.08,8.6a1.83,1.83,0,0,0,.88-.78c.92-1.62,1.7-3.32,2.72-4.86a27.08,27.08,0,0,1,2.83-3.33,1.92,1.92,0,0,1,2.92-.08,57.37,57.37,0,0,0,9.12,7.48c2.38,1.66,4.69,3.41,7,5.13Zm12.77,15.34c-.37.29-.94.51-1.08.88-.73,2-1.34,4-2,6l.26.1.61-1c-.4,2.27-.75,4.24-1.1,6.21l.39.1a26,26,0,0,0,1-2.49c.48-1.73.9-3.47,1.3-5.22.23-1,.38-2,.57-3l.64-.31c-.72,3.52-1.43,7-2.14,10.42l.31.07a3.22,3.22,0,0,0,.25-.62q1.06-5,2.09-10.09a3.1,3.1,0,0,0-.07-.9l1-1.08c-.53,2.91-1,5.64-1.53,8.36l.53.16a27.14,27.14,0,0,0,1.15-2.75c.49-1.68.86-3.4,1.29-5.1,0-.19.17-.45.09-.58-.68-1.11-.12-2.19.07-3.27.06-.37.41-.69.62-1l.26.16c-.3,1.09-.6,2.19-.89,3.28l.1,0,.64-1.06v1.34l-1,5.21.47.1,1.18-5.33c.3-1,.59-2,1-3.21v5.62l.27,0,.36-2.61.21,0v1.58a1.32,1.32,0,0,0,.32-.73,55.25,55.25,0,0,0,.3-5.59c-.06-1.75.91-2.78,2-3.81l-1.37,3.42a7.35,7.35,0,0,0,1.2-2.05,4.58,4.58,0,0,1,2.27-2.72c1.62-.77,3.13-1.79,4.68-2.7l4.46-1.25a7,7,0,0,0-4.43,1.27l-6.52,3a7.34,7.34,0,0,1,.19-1.33c.79-2,2-3.83,2.14-6.07a5,5,0,0,1,.28-1l-.26-.09-.88,1.23,1.11-5-.34-.08a5.19,5.19,0,0,0-.85,2.63,13.1,13.1,0,0,1-1.62,3.83,22.81,22.81,0,0,0-2.21,6.79c0,.1.22.25.35.38l0,0c-1.11,1.2-2.19,2.44-3.34,3.61-2.43,2.47-5,4.82-7.31,7.37-3,3.35-5.91,6.85-9,10.47-.21-.38-.6-.76-.6-1.15,0-2.45,0-4.91,0-7.36s0-4.8,0-7.2h-.09l-1.05,13.09.37,0,.21-3.33c.07,1.93.55,3.89-.12,5.82.89.63,0,1.89.5,2.83.84-.67.46-2.54,2.22-2.18l-.72-.78,12.14-13.78.34.23-.44,1ZM177.3,29.62c-.2,0-.55-.15-.58-.09-.39.67-.73,1.37-1.09,2.06-.17-.16-.5-.34-.49-.5.08-1,.23-1.92.35-2.88-1.05,2.17-.2,4.82-1.75,6.87l-.89-.66c0-.31-.06-.61-.12-.9a6.94,6.94,0,0,1-.43-1.93c.37-4.16.82-8.32,1.24-12.47a3.79,3.79,0,0,0-.06-.67l-.14,0q-.61,2.38-1.22,4.78l-.28,1.31c-.2-.17-.57-.33-.58-.49,0-1.47,0-2.95.06-4.42a24.21,24.21,0,0,1,.57-3c-1.75,4.08-.48,8.4-1.1,12.59a16.06,16.06,0,0,1-.34-11.37c-1.62,1.7-1,3.77-1.6,5.64,0-.92-.08-1.85-.13-2.78a18.86,18.86,0,0,0,1.45,8.87,16.68,16.68,0,0,1,.6,2.86,1.47,1.47,0,0,0,.11.25l.59-.43a6.47,6.47,0,0,0,.48,1.27,4.2,4.2,0,0,0,.85.77c0,.22-.15.52-.05.63a1.76,1.76,0,0,1,.16,2.28c-.4.77-.67,1.61-1,2.41l.21.09c.46-1.08.93-2.15,1.54-3.54,1.09,2.57.41,4.69-.37,6.82a1.39,1.39,0,0,0,.55-.59,27.56,27.56,0,0,0,1.33-3.19c.28-1,1.41-1.82.62-3A19.94,19.94,0,0,0,177.3,29.62ZM139.07,51.76l.36-.85-.29-.19-1.06,1.17c-1,.61-1.08,2.2-2.64,2.54l.28-1.34c-.63,1.21-1,2.51-1.58,3.72s-1.36,2.42-2,3.65-1.12,2.3-1.68,3.45l.31.16,1.39-2.48.42.21-1.55,3,.23.18,1.22-1.35.2.16-2.54,4.81.29.17c.66-1,1.27-2.1,2-3.07.9-1.2,2-2.26,2.86-3.48s1.45-2.36,2.16-3.56a6.36,6.36,0,0,0,.33-.7l-.25-.18-2.59,3.32a.53.53,0,0,1,0-.53A39.17,39.17,0,0,0,139.07,51.76Zm-66.2,1,0,0c.42.51.74,1.29,1.27,1.47a4.05,4.05,0,0,1,2.5,2.11l-.47-1.38c.66.39,1.05.63,1.46.84,1.31.67,2.58,1.71,4,1.87a10.19,10.19,0,0,1,2.94,1,11.19,11.19,0,0,1,1.18.48c1.24.76,3,.88,3.45,2.65,0,0,.14,0,.22.06l.16-.59,2,1.7.33-.35L90,61.39l.23-.3,1.63.41a1.85,1.85,0,0,0-1.16-.8,1.33,1.33,0,0,1-1.36-1.61c.29-1.55-1-2-1.7-2.86v2.15l-3.17-3.57-.2.15L88,59.54c-.16.05-.24.11-.3.09a5.25,5.25,0,0,1-.55-.22,5.81,5.81,0,0,1-2.83-3.85c-.61-1.86-2.22-2.39-3.5-3.43L83,56.39l-.21.11L80.1,51.71l-.24.11.26,1-.18.08-1.12-1.78-.32.16.34,1.47-.15.07-1.07-1.7-.36,1.25-.88-3.17-.34.1.42,2.86-.16,0L75.08,49l-.3.1,2,5.62c-1.37-.67-1.43-.66-1.75-2.54a5.54,5.54,0,0,0-3.31-4.63c.06.7.07,1.31.18,1.91s.28,1.16.48,1.92a6.07,6.07,0,0,1-.18-7.6,7.4,7.4,0,0,1,.82.37c3.16,1.89,5.59,1.41,8-.84a19.73,19.73,0,0,1,3-1.91c.09,0-.12-.07-.25,0a23.59,23.59,0,0,0-3.23,1.9c-1.4,1.12-2.83,2-4.67,1.51-1.26-.35-2.47-.89-3.84-1.39C70,45.21,70.05,50.24,72.87,52.71ZM180.55,88.94l.21.44.38-.37,2.45-4.24.1,0-1.38,4.71.3.13c.58-1.13,1.2-2.25,1.73-3.41s1-2.43,1.49-3.64l.36.13-1.87,6.05.34.12,1.75-4.36.24.08L185.26,89l.41.14,2.91-7.47.17.05-1.29,5.37.38.12c.76-2.08,1.82-4,2.16-6.28l0,0c.08.16.26.34.23.49-.21,1.3-.47,2.59-.71,3.88l.34.1c1.64-2.31,2.12-5.14,3.3-7.67-.17,1.81-.92,3.53-.62,5.35l.44.14,1.69-3.78v2.86l.24.06.88-1.94.52,1.22c1.18-2.47,2.32-4.68,2.28-7.23l-.53-.33-.48,1.05a3.21,3.21,0,0,1,1.51-3.37,11.29,11.29,0,0,0-1.77.91c-.24.13-.66.26-.81.14-.7-.53-1.19-.13-1.73.26s-1.1.78-1.66,1.15c-4.66,3.05-9.34,6.07-14,9.16a12.79,12.79,0,0,0-3.84,3.41l.15.3,2.65-.74c-.28,1.41-.55,2.71-.82,4l.29.15c1.47-1.55,1.76-3.83,2.95-5.55l.3.14-1.55,5.19ZM62.4,64.64c-.65.12-1,.17-1.35.25Q42.9,69,24.73,73.16a2.87,2.87,0,0,0-2.5,2.59Q18.72,95,15.08,114.27a3.13,3.13,0,0,0,.7,3q13.59,15.18,27.13,30.4c1.66,1.86,2,1.93,4.23.93Q64.06,140.92,81,133.3a3.48,3.48,0,0,0,2-2.09q7.08-18.39,14.2-36.76c.76-2,.62-2.52-1-3.8Q90,85.86,83.86,81.08L64.11,65.68A17.89,17.89,0,0,0,62.4,64.64Zm136.53,3.25L203.48,69l.43-.68-3.48-2,3.85-.3v-.28L203.15,65l2.08-.18v-.28l-1.72-.58,3.5-1.24-.07-.3-1.48-.5,2-.75-.12-.44-2.75.52c-.17-1.2-.17-1.2,1.92-3.25l-2.23,1.27c-.18-2.3-.21-4.49-.58-6.63-.39-2.31.56-3.92,2.24-5.38a2.22,2.22,0,0,0-2.15,1.37A38.72,38.72,0,0,0,200.46,60a16.92,16.92,0,0,1-1.58,5.17c-.75,1.59-.63,3.2-1,4.79l.38.08Zm21.64,33.61-.1-.36L207.32,104l.06.31,9.38-1.91,0,.19-19.35,5.12.08.3,22.69-5.61-.63-.41ZM89.42,40.79l0,.32,2.48,1.16c2.52,1.18,5,2.38,7.57,3.52a25.93,25.93,0,0,1,3.22,1.26,1.8,1.8,0,0,0,2,.08,21.68,21.68,0,0,0-1.91-1Q96.68,43.5,90.55,41A4.6,4.6,0,0,0,89.42,40.79Zm93.34,173.44a5.41,5.41,0,0,1-1.22,0q-3-.75-6-1.57a3.63,3.63,0,0,0-3.92.94c-3.16,3.22-5.05,7.21-7,11.15-.06.11,0,.31.12.75.42-.86.71-1.45,1-2a41,41,0,0,1,5.44-8.68c1.39-1.69,2.94-2.3,5-1.44a17.18,17.18,0,0,0,2.59.88C180.07,214.49,181.38,215.06,182.76,214.23Zm33.66-26.56c-.69,1.31-.44,8.73.23,10.41a17.72,17.72,0,0,0,.06-2.3,2.85,2.85,0,0,1,2.75-3.28,1,1,0,0,1,1.23,1.06,3.5,3.5,0,0,1-1.71,3.33c-.6.32-1.15.74-1.73,1.11l.2.23c1.71-.91,3.47-1.75,3.62-4.15.1-1.59-.63-2.31-2.13-1.87a21.46,21.46,0,0,0-2.52,1.12Zm-8.26,15.27.39,0a21.71,21.71,0,0,1,0-3,5.55,5.55,0,0,1,.88-2.25,1.49,1.49,0,0,1,1.39-.43c.34.18.53.9.55,1.4a20.06,20.06,0,0,1-.2,2.56l.35,0a14,14,0,0,0,.21-3.33,2.11,2.11,0,0,1,1-2.3c.33-.24.83-.54,1.14-.44s.53.68.54,1c0,1-.1,2-.17,3l.33,0a27.49,27.49,0,0,0,.21-3c0-.48-.31-1.25-.65-1.36a2.49,2.49,0,0,0-1.58.41,7.26,7.26,0,0,0-1,1,1.59,1.59,0,0,1-.68.38c-2,.38-2.68,1.12-2.71,3.15C208.14,200.8,208.16,201.87,208.16,202.94ZM180.57,22.44l-.28-.1L175,27.22a5.8,5.8,0,0,0,2.39-1,34.53,34.53,0,0,0,3-2.91C180.59,23.15,180.52,22.74,180.57,22.44Zm-5.84-7.06a9.22,9.22,0,0,0,6.73,2.7,21,21,0,0,0-3.21-2.64l.61.72-.11.14-1.37-.71-.12.21,3.67,2.06c-.54,0-.72.1-.84,0Zm-50.5,53.85,0,.15c1.13-.47,2.24-1,3.4-1.38.66-.23,1.5-.65,1.84.67l.54-1.18-1-.16,1-.71-.08-.09-6.59,2.14,0,.1,1.74-.38.09.2ZM221.66,98A42.87,42.87,0,0,0,210,100.17Zm-127-37.34.26.2,3.93-6.33C97,56.26,95.27,58.1,94.64,60.66Zm106.14,146c-1.34.74-2.31,1.92-3.65.83a2.54,2.54,0,0,1-.27-3.09c.8-1.45,1.82-.92,3-.18-.77-1-1.54-1.36-2.28-1.14a3.14,3.14,0,0,0-1.55,2.76,2.26,2.26,0,0,0,1.47,2.35C198.59,208.49,199.82,208,200.78,206.61Zm-27.5-97.4-.49.26c2,2.83,4,5.64,6,8.46l.34-.23c-1.7-2.42-3.42-4.83-5.11-7.24C173.72,110.08,173.53,109.65,173.28,109.21Zm3-10.89h-.37c-.14,2.4-.27,4.79-.4,7.08l.77-.39Zm-85.14-41-.1.07-.94-1.94-.32.16,3.33,6.2.21-.08-2.28-6-.35.12ZM176.3,89.51l-.23,0c.37,3.47.73,6.94,1.1,10.41l.33,0ZM223.65,190c-.86.91-.84,4.18,0,5.45Zm-59.31-88.84-.23.23,7.47,6.87.21-.22Zm-49.4-63.66-.33.08A18,18,0,0,0,116.9,44Zm91.41,162.14-.49,0c.09.48.19,1,.26,1.44.47,2.88-.36,4-2.68,3.75a1.87,1.87,0,0,0,3-1.2A27.05,27.05,0,0,0,206.35,199.62Zm-13.74-90.38.29.43,3.76-2.68-.21-.33Zm41.94-27-.15-.39-5.06,2.53.11.24ZM136.36,52.69l.3.15,2.18-4.33-.31-.15C137.8,49.8,137.08,51.25,136.36,52.69Zm-27,1.36.3-.11q-1.32-2.37-2.66-4.74l-.2.11ZM89,54.44l-.27.15,1.82,5.22.3-.11Zm12.14-6.6-.09-.23-4.81,1.68.08.26Zm57.53,48.94-.18.23,4.13,3.22.17-.22ZM185,21.32l-.09.25,3.74,1.9.11-.24Z"/><path class="cls-1" d="M154.82,108.24l.66.35a9.24,9.24,0,0,0,1.09,1.31c1.56,1.29,3.21,2.48,4.75,3.8,1.3,1.12,2.47,2.37,3.72,3.54s2.06,2.38,3.3,3.38a10,10,0,0,1,3,4.53c.26.72.57,1.42.85,2.13a20,20,0,0,0-.93-3.06,2.61,2.61,0,0,1,.06-1l2.25,2.26,2.67,3.28,0-.05,1.21,2.19,1.74-1.37c.24,2.55.41,4.79.66,7s.54,4.28.82,6.42l.3,0,.14-1,.14,0v1.91c-.34,0-.65,0-1,0a8,8,0,0,0-.83.14c.24.2.45.53.71.58.93.2,1.87.27,2.8.45,1.64.31,3.27.66,4.91,1l.07-.16-1.06-.64c1.5.1,2.65.21,3.8.22a1.34,1.34,0,0,0,.82-.49c.07-.07-.17-.42-.25-.64s-.39-.75-.28-1a6.56,6.56,0,0,1,1.46-2.53,64,64,0,0,1,6.38-4.16,11.21,11.21,0,0,1,3-.84c1.77-.42,3.55-.82,5.33-1.18a1.12,1.12,0,0,1,.75.27c1.51,1.08,1.75,2.34.81,4-.36.63-.65,1.28-1,1.93l.26.13.83-1.08c-.41,2-.84,3.75-1.07,5.48a2.91,2.91,0,0,1-1.81,2.43,17.3,17.3,0,0,0-2.23,1.53l.19.31,2.7-.44.34.89.74-1.09.31.09c-.08.27-.08.63-.26.78-.42.37-1,.55-1.38,1-1.05,1.15-3.54,1.24-2.82,3.48a35,35,0,0,0-2.72-3.75,23,23,0,0,0-3.16-2.42l-2.37-1.8-.2.24a15.65,15.65,0,0,1,5.3,5.55c2.09,4.19,2.69,8.41.07,12.64a2.94,2.94,0,0,1-3.9,1.38l1.83-1.12-.28-.44a5.53,5.53,0,0,0-1.55.29c-2.75,1.41-5.48,2.88-8.22,4.33l-2.63,1.37a60.78,60.78,0,0,0,0-6.21,32.27,32.27,0,0,0-1.27-6.07c-1-3.25-1.77-4.51-2.63-5.11a26.2,26.2,0,0,1,3.42,14.73,11.62,11.62,0,0,1-3.74,7.91,2.71,2.71,0,0,1-1.6.57c-2.18.13-4.38.08-6.55.28s-4.22.62-6.33.94a8.63,8.63,0,0,1,2.05-.88c3.25-1,6.5-1.89,9.74-2.88a5.3,5.3,0,0,0,1.17-.71l-.2-.5a34.38,34.38,0,0,0-5.3,1.11c-5.29,2-10.52,4.19-15.77,6.3-1.55.62-3.09,1.26-4.92,2l1.47-3.33c1.11-2.46,2.22-4.92,3.35-7.38.6-1.31.89-2.8,2.4-3.55s2.79-1.7,4.26-2.4a14.72,14.72,0,0,0,5.89-5.28l1.37-2.1-.36-.34c-2.25,5.42-7.25,7.45-12,10.1,1-2.12,2-4.08,2.86-6.06,1-2.32,2-4.66,3-7a3.33,3.33,0,0,0,.46-.67q4.18-10.39,8.35-20.8c.35-.9.66-1.82,1-2.73l-.27-.11c-.28.64-.58,1.27-.83,1.92q-3.47,8.9-6.91,17.79c-.59,1.54-1.17,3.09-1.76,4.63a4.91,4.91,0,0,0-.6.78c-.76,1.58-1.49,3.17-2.22,4.76q-3.37,7.38-6.74,14.78c-.75,1.65-1.52,3.29-2.29,4.93l-.41-.16c.81-2.19,1.51-4.41,2.44-6.54,3.07-7,6.29-13.93,9.32-20.95a150.67,150.67,0,0,0,6.93-20.08c.21-.77.29-1.57.44-2.35l-.41-.13-1.14,2.64-.58.78-3.38,5.67,0-.05c-.63,1-1.33,2-1.88,3-.87,1.64-1.65,3.32-2.46,5l0,0a15.4,15.4,0,0,0-1.16,2.15c-1.1,3.13-2.13,6.27-3.19,9.41l0,0a18.45,18.45,0,0,0-.74,2.08c-1.08,4.74-2,9.52-3.22,14.21-.81,3-2.13,5.89-3.27,9-.23-.26-.31-.33-.37-.42-2.72-4.21-5.24-8.56-8.21-12.59-2.66-3.61-5.81-6.85-8.74-10.26l-2.43-2.44-6-4.1-2.15-1.41-3-2.07-.13.22,9.74,9.41a11.1,11.1,0,0,1,.86.82c1.62,1.87,3.22,3.75,4.83,5.62a6.47,6.47,0,0,0,.54,1,38,38,0,0,1,8.17,18.19,1.8,1.8,0,0,1-.44,1.33c-1.61,1.67-3.31,3.24-4.93,4.89a7.75,7.75,0,0,0-.92,1.49l-.07.08a3.43,3.43,0,0,0-1,.42,19.26,19.26,0,0,0-1.71,1.67c-4.69,5.11-9.41,10.17-14,15.34-2.63,2.94-5.06,6.06-7.61,9.07-.5.59-1.21,1-1.73,1.58a18.61,18.61,0,0,1-2.2,2.67,11,11,0,0,0-3,4.05c-.33-.8-.71-1.59-1-2.42-1-3-1.81-6-3-8.95-1.65-4.1-3.56-8.1-5.35-12.14a88.5,88.5,0,0,0-7.56-14.35c-1.28-1.86-2.4-3.83-3.63-5.83L91,180.05l-.18-.21-3.08,2.07-.08-.17L91.78,176l-.48-.44L88,178.46l-1.3.84-1.43.57-.14-.18,5.85-8.2-.17-.15-2.61,2-.1-.12,1.68-2-.32-.28-3.06,3.29A3.63,3.63,0,0,1,87,173a23.34,23.34,0,0,0,1.4-2.06c.52-1,.91-2,1.4-3.06a9.14,9.14,0,0,1,.82-1.17l-.25-.22-6,4.44-.19-.23,5.11-6.2-.34-.3-2.8,3-.35.39-.62.36c1.72-2.58,4-4.64,5.76-7.12l-.29-.26-1.73,1.38-4.56,4.16a11.49,11.49,0,0,1,.81-1.51,42.55,42.55,0,0,1,9.89-10,3.67,3.67,0,0,0,.58-.6,76.18,76.18,0,0,0-18.45,14l.92.09L76.49,170l-1.74-1.57c1.37-1,2.7-1.93,3.87-3,2-1.82,3.93-3.73,5.88-5.62s4.19-3.3,6.13-5.16c1.29-1.23,2.77-2.27,4.18-3.39a1.55,1.55,0,0,1,.72-.34c.84-.1,1-.7,1.25-1.55l-6.5,4.55-.4-.19c.34-1.51.67-3,1-4.53a7.8,7.8,0,0,1,6.56-6.25c3-.64,5.9-1.66,8.84-2.53a2.65,2.65,0,0,0,.57-.35,37,37,0,0,0-7.15.87,51.35,51.35,0,0,0-6.5,2.71l.57-1.5,0,0L98.48,138l0-.14L96.5,139l-.16-.3,3.66-1.9c-1.72-.18-2.81.94-4.09,1.6l-.44,0-2.84,2.28c1.42-2.42,2.64-5,5.23-6.45.7-.39,1.81-.83,1.88-1.35.16-1.18,1.12-1.2,1.71-1.74.23-.2.44-.43.83-.82l-2.61.94,0,0,1.46-1.35c-3,.25-4.81,2.69-7.33,3.87a4.83,4.83,0,0,1,.62-1.38c1-1.51,2.52-2.08,4.12-2.66a10.7,10.7,0,0,0,2.21-1.46l-.21-.34-1.76.25,2.17-1.46-.19-.25-7.66,5.23-.19-.26a12.26,12.26,0,0,1,6.2-4.74,23.67,23.67,0,0,0,3.12-1.62l-.31-.6-8.8,4.31-.2-.32a10.41,10.41,0,0,1,4.19-3c1.26-.43,2.57-.7,3.83-1.12a6.23,6.23,0,0,0,1.32-1h-1.91l.19-.85h0l1.47-.23-.09-.49-4.87,1c1.27-2.09,3.79-1.87,5.52-3.12a6.41,6.41,0,0,0-1.46.17c-.55.1-1.1.17-1.65.25l0,0,3.74-2.63c-3.81-.32-6.65,1.14-9.17,3.6.15-.79.25-1.67.74-2a11.29,11.29,0,0,1,5.07-2.49c1-.17,1.93-.51,2.89-.77l-.1-.37c-1.32.34-2.64.71-4,1a19.58,19.58,0,0,1-2.16.26l1.46-.8c1.45-.62,2.4-2.47,4.44-1.68-.7-.93-1.54-.72-2.31-.49-1.51.44-3,1-4.58,1.47l1-3.82-.12-.1-1,1.47-.38-.27c.42-.56.85-1.12,1.25-1.7.27-.38.51-.79.75-1.2a7.22,7.22,0,0,1,.75-1.3,6.62,6.62,0,0,1,6.15-2.18,20.55,20.55,0,0,0,2.83,0v-.33c-2-.83-4.1-.45-6.18-.13,2.14-1.37,4.53-1.45,7-1.24l0-.46-4.24-.84,4.68-.62v-.86l4.06-1.51a11.58,11.58,0,0,0,1.18-.18,35.07,35.07,0,0,1,13.92-1.42,14.1,14.1,0,0,1,1.7.43.79.79,0,0,1,.74-.3c3.12.82,6.24,1.6,9.33,2.53,2.18.66,4.29,1.53,6.44,2.31a2.66,2.66,0,0,0,.38.28c2.63,1.36,5.26,2.73,7.9,4.07A9.27,9.27,0,0,0,154.82,108.24Zm-17.29,14.42.55-.88.86.2c-.93-.4-.94-1-.74-1.89.29-1.23.45-2.48.66-3.71-.45,2.1-1.26,4.14-1.3,6.31-.28,1.89-.55,3.77-.82,5.66a2.57,2.57,0,0,0-.34.71c-.33,1.94-.65,3.89-.93,5.85-.16,1-.23,2.06-.34,3.09a2.43,2.43,0,0,0-.41.63c-.77,3-1.52,6-2.27,9,0,.14.05.31.08.47h.26q1.16-5.06,2.3-10.12l1.62-9.66Q137.11,125.49,137.53,122.66Zm-17.22,86.61a4.54,4.54,0,0,0,.8-.63c2.2-2.74,4.35-5.52,6.58-8.23a102.12,102.12,0,0,1,14.25-14.63c.5-.41.95-.89,1.43-1.34l-.3-.29C128.81,195,117,208.25,106.14,222.43a4.5,4.5,0,0,0,1.5-1.05c2-2.43,4-4.87,6-7.35a200.65,200.65,0,0,1,15.47-17c1.8-1.82,3.68-3.58,5.52-5.37a.46.46,0,0,1-.1.5c-3.23,3.7-6.5,7.35-9.65,11.1-1.61,1.91-3,4-4.49,6l-4.62,6.16a49.81,49.81,0,0,0,4.35-5.19C120.26,210,120.23,209.61,120.31,209.27Zm-17.5-97c-3-.45-5.35,0-5.61,1Zm40.38,11.62-.18.22,5.87,3.78.15-.23Z"/><path d="M166,154.68c-1,2.34-2,4.68-3.06,7-.89,2-1.85,3.94-2.86,6.06,4.77-2.65,9.77-4.68,12-10.1l.36.34-1.37,2.1a14.72,14.72,0,0,1-5.89,5.28c-1.47.7-2.8,1.68-4.26,2.4s-1.8,2.24-2.4,3.55c-1.13,2.46-2.24,4.92-3.35,7.38L153.68,182c1.83-.73,3.37-1.37,4.92-2,5.25-2.11,10.48-4.3,15.77-6.3a34.38,34.38,0,0,1,5.3-1.11l.2.5a5.3,5.3,0,0,1-1.17.71c-3.24,1-6.49,1.92-9.74,2.88a8.63,8.63,0,0,0-2.05.88c2.11-.32,4.21-.74,6.33-.94s4.37-.15,6.55-.28a2.71,2.71,0,0,0,1.6-.57,11.62,11.62,0,0,0,3.74-7.91,26.2,26.2,0,0,0-3.42-14.73c.86.6,1.64,1.86,2.63,5.11a32.27,32.27,0,0,1,1.27,6.07,60.78,60.78,0,0,1,0,6.21l2.63-1.37c2.74-1.45,5.47-2.92,8.22-4.33a5.53,5.53,0,0,1,1.55-.29l.28.44-1.83,1.12a2.94,2.94,0,0,0,3.9-1.38c2.62-4.23,2-8.45-.07-12.64a15.65,15.65,0,0,0-5.3-5.55l.2-.24,2.37,1.8a23,23,0,0,1,3.16,2.42,35,35,0,0,1,2.72,3.75c-.72-2.24,1.77-2.33,2.82-3.48.37-.4,1-.58,1.38-1,.18-.15.18-.51.26-.78l-.31-.09-.74,1.09-.34-.89-2.7.44-.19-.31a17.3,17.3,0,0,1,2.23-1.53,2.91,2.91,0,0,0,1.81-2.43c.23-1.73.66-3.43,1.07-5.48L208,141l-.26-.13c.33-.65.62-1.3,1-1.93.94-1.66.7-2.92-.81-4a1.12,1.12,0,0,0-.75-.27c-1.78.36-3.56.76-5.33,1.18a11.21,11.21,0,0,0-3,.84,64,64,0,0,0-6.38,4.16,6.56,6.56,0,0,0-1.46,2.53c-.11.24.16.66.28,1s.32.57.25.64a1.34,1.34,0,0,1-.82.49c-1.15,0-2.3-.12-3.8-.22l1.06.64-.07.16c-1.64-.33-3.27-.68-4.91-1-.93-.18-1.87-.25-2.8-.45-.26-.05-.47-.38-.71-.58a8,8,0,0,1,.83-.14c.31,0,.62,0,1,0V142l-.14,0-.14,1-.3,0c-.28-2.14-.59-4.28-.82-6.42s-.42-4.47-.66-7l-1.74,1.37-1.21-2.19c.16.11.37.17.48.31.67.89,1.42,1.12,2.42.17-.19-1.22-.39-2.56-.6-4l-1.21.18c1.83-.93.87-2.2.72-3.4l-2,3.08-.41-.24c1-1.83,2.06-3.66,3.13-5.47s2.37-3.5,3.27-5.38,2.54-3.26,3.23-5.29l-1,.11c1.2-1.08,2.38-2,2.45-3.63,0-.21.37-.4.56-.6.62-.67,1.21-1.38,1.89-2a3.93,3.93,0,0,1,1.18-.5l.52.16.67-.36-1.83,2.59-.26-.18.78-1.07-.23-.17c-.88,1.26-1.75,2.51-2.85,4.07a6.48,6.48,0,0,0,1.55,0c2.9-.85,5.79-1.74,8.68-2.63a3.7,3.7,0,0,0,1.38-.78l-.43,0,17.32-10.25-.2-.37c-.6.3-1.2.63-1.83.87a3.94,3.94,0,0,1-1,.06l.07,0q5.63-2.66,11.27-5.29c1.17-.55,2.39-1,3.6-1.52-.52.9.19.8,1,.73-5.71,1.72-10.39,4.92-15.14,8-2.26,1.48-4.57,2.9-6.85,4.36-.76.48-1.5,1-2.37,1.56l17.55-3.41.09.45-2.28.41.24.87,4.29-.67.09.36a6,6,0,0,1-.91.29,46.19,46.19,0,0,1-6.88.84,35.48,35.48,0,0,0-6.76,1.23c-2.77.57-5.58,1.05-8.29,1.86-1.84.54-3.79.84-5.41,2.15-2.07,1.68-4.33,3.12-6.52,4.65-.27.19-.58.34-.87.51l-.24-.34,7.67-5.45,0-.16-5,1.38a8.07,8.07,0,0,1-1.38.42,4.5,4.5,0,0,0-3.5,2.5c-1.6,2.54-3.44,4.9-5.11,7.39a15.59,15.59,0,0,0-2.11,3.85,10.91,10.91,0,0,0,0,3.42l.44,0,.43-1.66.71,1.15c-.88,1.67-.83,3.31-.6,5.35l25.52-11.07c-8.16,2.42-15.78,6.21-23.66,9.33,10.3-6.47,21.8-10.35,32.74-15.43-10,2.67-19.14,7.3-28.63,11.15l6.69-3.18-.12-.26-11.12,5.05-.09-.21,11.2-5.3-.07-.18-1.58.53c6.35-3.39,13.21-5.47,19.86-8.08-10,3.19-20,6.7-29.19,11.81-.15-.24-.18-.27-.19-.3a.38.38,0,0,1,0-.12c1.37-.73,2.71-1.55,4.13-2.16,7-3,14-6,21-9.1L189.44,118l-.05-.12,4.76-2.06,14.55-6.15c.61-.27,1.21-.58,1.81-.86l0,0a3,3,0,0,1-2,1.47,28.9,28.9,0,0,0-3.74,1.55,149.34,149.34,0,0,1,14.94-4l.22.47-4.69,2.72,3-.75.18.46-7.1,3.46,8.35-2.22.17.47-2.18,1.14c.2.19.48.35.49.52s-.24.4-.42.52c-1.29.84-2.6,1.66-4.16,2.65l3.4-.7.43,1.54-2.48,1.61,2.61-.6.27.43c-2.71.91-3.45,3.85-5.91,5l.15.26a13.53,13.53,0,0,0,1.43-.34c1.36-.47,2.49.12,3.68.62a3.88,3.88,0,0,0,1.8.15,15.15,15.15,0,0,0,2-.43l.18.39-1.35,1.06c-.36-.15-.62-.38-.81-.33a16.61,16.61,0,0,0-2.4.73q-5,2.12-10.05,4.29c-1.31.57-2.58,1.21-3.91,1.84,3.07.12,5.55-1.36,8.22-2.38,5.51-2.09,11.14-3.9,16.75-5.74,2.23-.74,4.52-1.26,6.8-1.85a9,9,0,0,1,2-.28c-3.18.57-6.21,1.44-8.55,3.79l5.68-1.76.18.35-1.7,1.39,3-.57-2.38,2.77c-.14-.12-.34-.38-.41-.34-1.48.69-2.94,1.42-4.4,2.14l.14.31,3.47-1.4c.32,1.46-1,1.92-2,2.93l4.21-.84.09.28-.47.28-4.2.65.09.44,4.11-1.09.24,1.19-5,2.53.15.31c2.36-.38,4.34-1.71,6.45-2.74l-2.87,2,3.07-.48c-.37,1.61-1.92,1.38-2.86,2s-1.68,1.33-2.66,2.12l7.57-2.07-.26.38.75.49-.67.65c-.41.41-.79.87-1.24,1.24-1.19,1-2.42,2-3.51,2.85l2,.16.11.37c-.93.64-1.89,1.25-2.77,2a4.69,4.69,0,0,0-.8,1.13l-5.38,2.42.22.46,6.61-3.09-.15-.35-1.34.57a10.72,10.72,0,0,1,1.44-.8,45.34,45.34,0,0,1,4.79-1.52l-6.76,3.47.08.19,4.77-1.6.47.66-2.38,1.45.07.14L246,142.39l.24.44-13.13,8,.09.2c1.54-.5,3.07-1.41,4.62-1.43,2.76,0,5-1.72,7.64-2l-5.11,2c-.33.13-.79.25-.92.51-.85,1.74-2.56,2.43-4,3.36s-2.84,1.6-4.27,2.39a26.39,26.39,0,0,0,5.11-1.49c2.06-.93,4-2.15,6-3.23,1.64-.88,3.3-1.73,5-2.59-2.6,1.55-5.18,3.14-7.81,4.65s-5.41,3-8.18,4.59l.51,1.14L248.57,152l.09.22-15.6,7,.14.33,15.49-5.74.14.33L231.16,163l.12.23,14.88-6.49,0,0a7.42,7.42,0,0,1-1.08.81c-4.14,2-8.29,3.9-12.34,6.09l4.75-1.92.1.22-3.24,1.59.14.28,16.35-7.05L224.63,171.4l.17.31,14.81-7.53.17.32q-4.72,2.5-9.46,5l.07.14,21.11-9.76.19.36a473.65,473.65,0,0,0-87,51.6c8.91-7.21,18.22-13.85,27.74-20.21-2.43,1.49-4.86,3-7.3,4.46-8.85,5.35-17.63,10.82-26.57,16-7.87,4.55-15.93,8.77-23.91,13.12-1.82,1-3.67,1.91-5.52,2.83a10.45,10.45,0,0,1-1.33.46l0,0a7.76,7.76,0,0,1,1-.67c3.6-1.87,7.26-3.66,10.82-5.61,6-3.3,12-6.57,17.94-10.08,10-5.95,19.92-12.07,29.87-18.13,2.61-1.58,5.2-3.2,7.8-4.8a.76.76,0,0,0-.69.11q-13.76,8.27-27.51,16.54c-2.15,1.29-4.37,2.46-6.55,3.69l0,0a6,6,0,0,1,.86-.74l23.22-14.17,9.36-5.7-.12-.23-27.5,15.14-.14-.23,16.42-9.45a13.61,13.61,0,0,0-2.7,1,4.74,4.74,0,0,1-1,.26,4.11,4.11,0,0,0-1.35.22c-6.84,4.13-13.81,8.07-20.44,12.5-5.8,3.87-11.22,8.31-16.82,12.49-.91.68-1.84,1.32-2.77,2q16.32-13.44,33.41-25.85a1.39,1.39,0,0,0-.69.19c-6.81,3.81-13.64,7.58-20.42,11.45-3.36,1.92-6.61,4-9.93,6-5.34,3.21-10.7,6.38-16,9.56a5.28,5.28,0,0,1-.89.34l-.2-.41a215,215,0,0,0,20.87-12.92c-.16-.1-.24-.1-.31-.06q-10,5.7-19.94,11.43a4,4,0,0,0-1.16,1q-4.36,5.69-8.68,11.41a3.49,3.49,0,0,0-.33,1.12l0,0c-1.48,1.76-3,3.5-4.42,5.31a2.27,2.27,0,0,0-.12,1.48c.22,1.6.51,3.19.77,4.78l-.38.07-1.93-10.66c-5.33,5.55-9.53,11.8-15.64,16.11l-.38-.37c.19-.19.37-.4.56-.58,2.36-2.27,4.81-4.45,7-6.83a22.74,22.74,0,0,0,2.94-4.55C97.11,245.16,93,250,88.23,254.1l-.27-.26c1.32-1.36,2.65-2.69,4-4.06q6.95-7.36,13.84-14.76a5.32,5.32,0,0,0,.67-1.63l-.35-.18-.77.35c-.11-.11-.22-.19-.21-.21,1.23-2.18,0-4.2-.58-6.16-1.28-4-2.62-8.05-4.24-11.94C97.68,209,95.05,202.84,92,196.84c-1.93-3.8-4.63-7.22-7-10.83-1.23-1.89-2.41-3.8-3.65-5.75l-.84.45c-.13-.53-.1-1.28-.41-1.47-.64-.4-.67-1.93-1.72-1.23a6.92,6.92,0,0,0-.82-1.49c-2.58-2.61-5.14-5.24-7.81-7.74a23.6,23.6,0,0,0-8.15-4.92c-.48-.18-.95-.4-1.43-.61a4.25,4.25,0,0,1-.52-.44,33.84,33.84,0,0,1,10.75,5.45,22,22,0,0,0-12.13-7.7,1.82,1.82,0,0,1,.46-.11.72.72,0,0,0,.48-.06l-.82-.53c.2-.08.32-.17.38-.14,4.22,1.95,8.69,3.46,12.28,6.57a1.77,1.77,0,0,0,2.54,0l-.86.82c.77.83,1.39,1.25,2.33.33,1.4-1.36,2.9-2.6,4.35-3.92,1.08-1,2.14-2,3.21-3l-.21-.25a15.1,15.1,0,0,0-2.81,1.67,21.1,21.1,0,0,1-5.5,4L86,155.59c-.2.53-.39,1.07-.58,1.6.73-.43,1.53-.86,2.27-1.36.49-.32,1.21-.71,1.28-1.16A26.88,26.88,0,0,0,89,151l-1.73,2.72c1-2.67,2.47-5.19,2.11-8.29l-.54.91-.37-.11,1.51-4.9-.36-.13-1.1,2.06-.34-.16,1.4-3.73-.39-.18-.84,1c.11-1.33.15-2.4.3-3.46.24-1.76.94-3.56.73-5.26-.19-1.53.79-2.53.9-3.89a54,54,0,0,1,1.39-7.87c.32-1.38,1.09-2.65,1.49-4,1.27-4.28,2.38-8.62,3.74-12.87a63.09,63.09,0,0,1,2.69-6.24l1.59,1.3,0,0-1,1.52c3.56-1.65,7.33-2.37,9.18-1L105.2,99l0,.13,4.23.52c-1.81.35-3.37.58-4.89,1a16.18,16.18,0,0,0-2.51,1.07l3.73-2.1c-2.58-.58-7.33,1.67-7.16,4l3.46-2c.13.13.27.38.39.37,1.83-.12,3.66-.28,5.49-.43v.86l-4.68.62,4.24.84,0,.46c-2.46-.21-4.85-.13-7,1.24,2.08-.32,4.16-.7,6.18.13v.33a20.55,20.55,0,0,1-2.83,0,6.62,6.62,0,0,0-6.15,2.18,7.22,7.22,0,0,0-.75,1.3c-.24.41-.48.82-.75,1.2-.4.58-.83,1.14-1.25,1.7l.38.27,1-1.47.12.1-1,3.82c1.59-.52,3.07-1,4.58-1.47.77-.23,1.61-.44,2.31.49-2-.79-3,1.06-4.44,1.68l.18-.64-.29-.22-2.55,2,.3.39.9-.7a19.58,19.58,0,0,0,2.16-.26c1.33-.29,2.65-.66,4-1l.1.37c-1,.26-1.91.6-2.89.77a11.29,11.29,0,0,0-5.07,2.49c-.49.38-.59,1.26-.74,2,2.52-2.46,5.36-3.92,9.17-3.6l-3.74,2.63,2.29-2.42a12.45,12.45,0,0,0-8,4.56l1-.17c-.65.5-1.38,1-1,2.06l3.65-2.67-.08-.14-2.59.86c.6-.29,1.18-.61,1.79-.87,1-.43,2-.84,3-1.25.55-.08,1.1-.15,1.65-.25a6.41,6.41,0,0,1,1.46-.17c-1.73,1.25-4.25,1-5.52,3.12l4.87-1,.09.49q-.74.11-1.47.24a9.37,9.37,0,0,0-5.4,2.85c1.87-.82,4.06-1,5.4-2.87l-.19.85h1.91a6.23,6.23,0,0,1-1.32,1c-1.26.42-2.57.69-3.83,1.12a10.41,10.41,0,0,0-4.19,3l.2.32,8.8-4.31.31.6a23.67,23.67,0,0,1-3.12,1.62,12.26,12.26,0,0,0-6.2,4.74l.19.26,7.66-5.23.19.25-2.17,1.46,1.76-.25.21.34a10.7,10.7,0,0,1-2.21,1.46c-1.6.58-3.15,1.15-4.12,2.66a4.83,4.83,0,0,0-.62,1.38c2.52-1.18,4.32-3.62,7.33-3.87l-1.46,1.35a5.79,5.79,0,0,0-1.17.41A16.15,16.15,0,0,0,96.59,133c-1.31,1.09-2.58,2.21-3.85,3.35-.14.13-.14.43-.22.73,2.22-1.71,4.34-3.33,6.43-5a5.63,5.63,0,0,0,.72-.88l2.61-.94c-.39.39-.6.62-.83.82-.59.54-1.55.56-1.71,1.74-.07.52-1.18,1-1.88,1.35-2.59,1.45-3.81,4-5.23,6.45l2.84-2.28-2,2.45.32.25,2.15-2.66c1.28-.66,2.37-1.78,4.09-1.6l-3.66,1.9.16.3,1.93-1.09,0,.14-4.71,4.14c-.23,0-.55-.09-.66,0-.7.76-1.35,1.57-2,2.37l.31.28c.51-.54,1-1.08,1.53-1.64.31-.34.58-.71.86-1.07l-.57,1.5a51.35,51.35,0,0,1,6.5-2.71,37,37,0,0,1,7.15-.87,2.65,2.65,0,0,1-.57.35c-2.94.87-5.85,1.89-8.84,2.53a7.8,7.8,0,0,0-6.56,6.25c-.36,1.51-.69,3-1,4.53l.4.19,6.5-4.55c-.27.85-.41,1.45-1.25,1.55a1.55,1.55,0,0,0-.72.34c-1.41,1.12-2.89,2.16-4.18,3.39-1.94,1.86-4.22,3.29-6.13,5.16s-3.87,3.8-5.88,5.62c-1.17,1-2.5,1.93-3.87,3L76.49,170l1.59-1.84-.92-.09a76.18,76.18,0,0,1,18.45-14,3.67,3.67,0,0,1-.58.6,42.55,42.55,0,0,0-9.89,10,11,11,0,0,0-.81,1.52l-1,1a39.54,39.54,0,0,0,4.81-3.55,7.76,7.76,0,0,0,1.06-1.28s-.2-.19-.31-.3l1.73-1.38.29.26c-1.75,2.48-4,4.54-5.76,7.12l.62-.36-4.68,5,.24.23c2.11-1.39,3.4-3.55,5-5.43l-.21-.15,2.8-3,.34.3-5.11,6.2.19.23,6-4.44.25.22a9.14,9.14,0,0,0-.82,1.17c-.49,1-.88,2.07-1.4,3.06A23.34,23.34,0,0,1,87,173a3.63,3.63,0,0,0-.63,1.33L89.42,171l.32.28-1.68,2,.1.12,2.61-2,.17.15-5.85,8.2.14.18,1.43-.57L84.36,181l-.25-.26c.87-1.54,1.72-3.07,2.61-4.6A10.78,10.78,0,0,1,87.6,175c-1.5,1.41-2.88,2.67-4.2,4a1,1,0,0,0-.13,1c.92,1.39,1.91,2.73,2.94,4.18l1.71-1.81-1.64.53,4.6-6.1-.26-.24-2.66,2,3.34-2.88.48.44-4.08,5.72.08.17,3.08-2.07.18.21-4.61,4.31c1.23,2,2.35,4,3.63,5.83a88.5,88.5,0,0,1,7.56,14.35c1.79,4,3.7,8,5.35,12.14,1.17,2.91,2,6,3,8.95.28.83.66,1.62,1,2.42l0,0c.12.52,0,1.4,1,.54l-.41,1.67.46.25a11.07,11.07,0,0,1,.7-.95c1.55-1.77,3.14-3.51,4.68-5.29q11.05-12.77,22.08-25.55c2-2.36,4-4.78,6-7.18.11-.13.06-.39.08-.59l1-1c.76-.75,1.54-1.47,2.27-2.25.16-.16.12-.49.17-.74l-.38-.2c-1.53,1.59-3.07,3.18-4.59,4.78-.11.11-.08.35-.11.53l-1.48,1.11a7.75,7.75,0,0,1,.92-1.49c1.62-1.65,3.32-3.22,4.93-4.89a1.8,1.8,0,0,0,.44-1.33,38,38,0,0,0-8.17-18.19,6.47,6.47,0,0,1-.54-1c.1.06.24.08.31.16a44.5,44.5,0,0,1,7.83,14,53.34,53.34,0,0,1,1.45,6.33l.67-.49c-1.27,1.86-2.67,3.55-4.06,5.26-1.59,2-3.14,4-4.75,5.92-3.12,3.78-6.27,7.52-9.39,11.28-2.55,3.06-5.09,6.14-7.63,9.2l1.43-2.1c-.2,0-.26,0-.28.07-4.41,4.93-8.82,9.86-13.19,14.84-.33.37-.3,1.06-.44,1.61l.44.18,1.93-2.15-.68-.15,3.12-3v.72c1.42-1.52,2.75-2.83,4-4.25,4.74-5.54,9.43-11.12,14.17-16.66,1.14-1.35,2.39-2.61,3.6-3.91l2.26-2.27,5.45-6,.23.21-1.73,2A.47.47,0,0,0,141,197c3.75-3.12,6.14-7.41,9.26-11.07a2.91,2.91,0,0,0,.59-2.18,8.59,8.59,0,0,0-1.22-2.56A107.44,107.44,0,0,0,136,162.63c-.68-.75-1.23-1.61-1.83-2.42,2.93,3.41,6.08,6.65,8.74,10.26,3,4,5.49,8.38,8.21,12.59.06.09.14.16.37.42,1.14-3.07,2.46-5.95,3.27-9,1.25-4.69,2.14-9.47,3.22-14.21a18.45,18.45,0,0,1,.74-2.08,3.76,3.76,0,0,1,0,.59c-.75,3.18-1.53,6.35-2.27,9.53-.37,1.63-.67,3.28-1,4.92,6.28-13.55,12.88-26.94,16.71-41.67l-.85.79,1.14-2.64.41.13c-.15.78-.23,1.58-.44,2.35a150.67,150.67,0,0,1-6.93,20.08c-3,7-6.25,13.95-9.32,20.95-.93,2.13-1.63,4.35-2.44,6.54l.41.16c.77-1.64,1.54-3.28,2.29-4.93q3.38-7.4,6.74-14.78c.73-1.59,1.46-3.18,2.22-4.76a4.91,4.91,0,0,1,.6-.78ZM71.57,167.83c-.38-1.54-1.87-1.79-2.81-2.69l-.28.34,3.13,2.31,1,1.75,1.4-1.3Zm154.34-41.75-5.59,2.37a5.53,5.53,0,0,1-1.28,1c-2,.87-4.07,1.63-6.09,2.49a22.81,22.81,0,0,0-2.25,1.28l.25.46c6-2.84,12.23-5,17.77-8.67a3.57,3.57,0,0,0-1.21.38ZM78.35,171.93l2,2.83,1.07-1.46-1.62.73c.56-2.33,2.44-3.51,3.31-5.33L78.31,172a2.15,2.15,0,0,1,.26-.64c.79-1,1.63-2,2.41-3,1.1-1.43,2.17-2.87,3.25-4.31l-.15-.12-7.35,6.55Zm132.41-18.34,3.53-2.07a17.78,17.78,0,0,0-2.88.85c-.69.21-.74.65-.65,1.23l.27.42-.49.43-.61-1.55-.4.23c-.12.8-.25,1.59-.42,2.64l15.08-7-.16-.39c-.35.13-.71.25-1.06.39ZM182,133.54a9.11,9.11,0,0,1,1.5-1.48c1.5-.9,3.07-1.7,4.63-2.5s3.41-1.69,5.12-2.54l-.11-.23-8.4,3.83-.1-.21,14.51-6.92a34.88,34.88,0,0,0-5.13,2q-6,2.81-11.86,5.71a3.83,3.83,0,0,0-1.56,1.24,6,6,0,0,0-.37,2l1.62-.93-.06.72-1.37.7.65,1.36-.33,1,1.61-.85c-.34.51-.69,1-1,1.54-.49.79-.21,1.05.64.88l-.61.65,18.45-9.7a130.73,130.73,0,0,0-15.22,7.32,5.83,5.83,0,0,1,2.12-2.24c4.79-2.37,9.52-4.85,14.28-7.28.74-.38,1.5-.74,2.24-1.12s1.46-.76,2.19-1.14a122.45,122.45,0,0,0-20.14,9.37l-3,1.75a14.54,14.54,0,0,1,2.3-2c3.55-2,7.16-3.81,10.74-5.7l1-.55c-4.29,1.68-8.44,3.6-12.6,5.48a7.51,7.51,0,0,1-1.67.36l29.23-13.81c-5.62,2.12-11.21,4.34-16.67,6.84C190.38,129.07,186.24,131.38,182,133.54Zm1.49,7.12-1.83.92V144a51.84,51.84,0,0,0,5.51-1.29c2.49-.86,3.35-3.67,5.51-5l-1.1.48-.13-.21,2.27-1.38c-2.45.91-4.78,2-7.14,3-1,.43-2.07.69-3.11,1,1.22-.56,2.45-1.12,3.66-1.7q4.41-2.08,8.8-4.21l-.12-.26-9.39,4.24-.16-.35,24.44-11.2c-6.19,1.27-28.33,11.84-29.1,13.81C182.33,140.87,182.93,140.76,183.52,140.66Zm-41.45,59.06-5,5.14.43.42c1.95-2.05,3.88-4.12,5.86-6.14.89-.91,1.88-1.73,2.8-2.62.16-.15.62-.6-.18-.36.46-.36.93-.7,1.37-1.07,1-.86,2.06-1.74,3.09-2.61l.29.34L133.44,209.5l.19.27c2-1,3.93-1.88,5.86-2.89a18.74,18.74,0,0,0,2.1-1.5,1.39,1.39,0,0,0-.06.19s.06.09.08.08a3.57,3.57,0,0,0,.76-.31c3.18-2,6.36-3.94,9.52-5.94.72-.45,1.37-1,2.05-1.54l-.14-.18q-5,3.15-10,6.31a19.19,19.19,0,0,1,1.65-1.36q4.84-3.21,9.72-6.37c2.2-1.42,4.43-2.8,6.64-4.2l-.11-.19-4.8,2.7-.15-.27,11.06-6.52-.1-.2-2.16,1-.13-.28,17.43-9.36-.15-.27a184.66,184.66,0,0,0-33.34,18.08l-.19-.31,12.58-8.56-.09-.16-2.59,1.33-.15-.28,13.81-7.4c-1.66.25-3.27.72-4.91,1-2.56.37-5.15.52-7.71.88a11.85,11.85,0,0,1-6.64-.62c-.42,1.13-.85,2.26-1.32,3.49l-.87-.75c-.8,1.58-1.56,3.07-2.46,4.86l-.38-1.44-2.86,4.05.17.14,2.39-1.93.35.09c0,.33,0,.75-.15,1q-1.56,1.89-3.22,3.68c-1.28,1.38-2.62,2.72-3.93,4.07l.21.25Zm6.66,2.89-.1-.19a2.75,2.75,0,0,0-.5.2c-1.45.85-2.88,1.72-4.33,2.56s-2.94,1.48-4.28,2.4c-1.19.81-2.86.77-3.68,2.26-.19.33-1,.4-1.56.44a4.05,4.05,0,0,0-3.11,1.74c-1.32,1.76-2.73,3.43-4.09,5.15-1.1,1.39-2.18,2.78-3.26,4.17l.17.21,18.47-10.71-.12-.25-2.35.78-.11-.48a9.8,9.8,0,0,0,1.8-.41,47.8,47.8,0,0,0,5.87-2.65c6.42-3.81,12.75-7.76,19.1-11.66,1.12-.69,2.21-1.42,3.31-2.13l-.09-.13L150.49,205l-.16-.28,22.28-13.19c-6.76,2.07-12.58,5.93-18.49,9.6l-.14-.26,4.94-3.24-.19-.29c-9,4.31-16.6,11-25.23,16ZM180.16,132c.47-.3.92-.6,1.39-.86,8.86-5.07,18.26-8.94,27.73-12.68,2.53-1,4.93-2.33,7.39-3.5l-.16-.39a11.81,11.81,0,0,0-1.45.36c-3.66,1.48-7.33,2.93-11,4.47-7.61,3.24-15.21,6.54-22.82,9.79C179.76,129.88,179.56,130.24,180.16,132ZM120.86,224l-.09-.13a10.62,10.62,0,0,0-1,.74c-.76.75-1.48,1.54-2.24,2.3-3.19,3.21-6.4,6.41-9.59,9.62a1,1,0,0,0-.3.72c.2,1.2.47,2.39.76,3.79ZM177,178.23c0-1.16-.5-1.34-1.25-1.23-3.14.45-6.34.7-9.42,1.42a55.47,55.47,0,0,0-6.92,2.57c3.22-.25,6.33-.64,9.43-1.13a14.25,14.25,0,0,0,2.82-.84c1.52-.59,3-1.26,4.53-1.89l.17.38-4.61,1.81.17.46ZM241.79,145l-.17-.33-21.05,10.56C228.45,153.45,235,149,241.79,145Zm-32.91,13.52-.17-.39,21.27-9.7-.22-.51c-1.72.7-3.45,1.37-5.16,2.11-4.69,2-9.35,4.1-14,6.07-1.91.8-2,.77-2.12,3l2.67-1.34-.1-.21Zm-50.7,38.18.15.27a3,3,0,0,0,.42-.14c3.79-2,7.53-4.15,11.38-6.06,1.49-.75,1.7-2.29,2.81-3.2l-.24-.28Zm60.81-47c4.82-1.87,10.07-2.79,14.21-6.58C227.75,144.06,223.58,147.34,219,149.7ZM81.68,176.92l6.19-7.52-.28-.3c-2,1.56-4.11,3-6,4.72C80.34,175,80.5,175.37,81.68,176.92Zm90.9,19.65-12.2,8.84.17.25,13-8.2Zm10.56-21.16a50.5,50.5,0,0,0,12-7C193.56,168.37,184.25,173.85,183.14,175.41Zm30.23-52.73-.18-.36-13,6.4.13.27C204.8,127.16,209.65,126.1,213.37,122.68Zm3.46,9.56,15.26-6.42-.16-.39A76.76,76.76,0,0,0,216.83,132.24ZM92.3,195.93l.45-.29-6.68-11c-.24.61-.46.91-.38,1C87.87,189.09,90.09,192.51,92.3,195.93ZM76.71,170.67l-.6.06c-.11.45-.47,1.08-.3,1.31,1,1.38,2.21,2.67,3.32,4,.86-.35,1-.82.49-1.49C78.64,173.24,77.68,172,76.71,170.67ZM229,137.89c-2.9.33-15.28,5.36-16.55,6.5ZM70.68,168.47l7.76,7.67A28.34,28.34,0,0,0,70.68,168.47Zm148.76-32.8.19.4,10.47-4.86-.29-.6Zm-3.65-1.14.16.36,12.5-5.35-.21-.48ZM206.58,154l-.31-.26c-2.28.8-2.42,1.16-1.42,3.88,1.43-.35,1.55-.54,1.55-2.61l-.86.22Zm7.83-14.24.13.33,11.55-4.55-.19-.47ZM99.83,210.22l-.42.17q2.52,6.15,5,12.28l.32-.13ZM217.51,99.83l0-.1a2.24,2.24,0,0,0-.45,0c-4.54.88-9.08,1.76-13.6,2.68a6.16,6.16,0,0,0-1.35.64l.09.13Zm-7,44.75,4.79-2.63-.06-.17-3.41.86.52-.89C210.51,142.26,210.51,142.26,210.48,144.58Zm12.2-11a44.71,44.71,0,0,0-10.35,4.69l.14.29Zm15.68,17.5-.2-.34c-2.86.82-4.93,3-7.52,4.32l.18.32Zm-23.45-3.65c-3.31.37-5.06,1.41-5.12,2.92Zm-5.38-.1.32.52q3.21-1.72,6.41-3.46a31.09,31.09,0,0,0-5.12,1.81A9.57,9.57,0,0,0,209.53,147.31ZM98,106a12.9,12.9,0,0,1,7-3.63C101.75,102.14,99.47,103.11,98,106Zm109.88,26.28.19.53,7.49-3.29-.17-.39ZM96.29,142.86l7.2-1.82A11,11,0,0,0,96.29,142.86Zm119.63-25-.21-.62-6.66,2.7.15.38ZM100,100.18l7.52-2.13C105.26,97.55,100.66,99,100,100.18Zm75.29,80.91-.16-.27-9.75,5.12.15.29Zm15.47-11.74a9.6,9.6,0,0,0-5.53,3.86Zm42.69-42.29-.21-.56-5.47,2.11.21.54ZM76,170.29c-1.42-1.72-1.42-1.72-2.62-.44C74.8,171.31,75,171.35,76,170.29Zm152.06-33.68-.13-.33-8.7,3.27.11.27ZM133,206.3l-.25-.22-5.91,6.79.28.24Zm89.46-62-.19-.3-6.83,3.15.2.43Zm4.78,9.85.22.47,6-2.8-.14-.3Zm-145,24.14,4-5.17C85.17,173.38,82.17,177.24,82.23,178.31ZM210,151.6l.19.4,7-3.3-.14-.28ZM83.11,180.82l-.3.23c.7,1.17,1.39,2.36,2.14,3.51.11.16.52.11.79.15l.15-.29Zm154.15-17.49c-2.27.5-4.84,1.89-5.19,3ZM214.58,121l-.18-.39-6.48,2.76.13.29ZM191.14,168l.18.39,4.83-2.3-.21-.45Zm-79.39,63.53.25.22,5.41-5.69-.25-.24C115.36,227.74,113.55,229.64,111.75,231.54ZM163,192.22l.2.27,6.52-4.21-.14-.21Zm63.14-54.38.09.26,6.36-2-.16-.46ZM105,103.9c-2.63-.12-5,.34-6.9,2.9C100.26,105,102.39,103.87,105,103.9Zm99.25,50.16c1.8-.59,2-.74,1.74-1.67C204,152.74,203.71,153,204.23,154.06ZM91.54,140.58l.29.17,2.94-4.37C93.41,137.59,92,138.78,91.54,140.58ZM202.8,162c1.15-.16,1.67-1.67,1-3.1C203.41,160,203.11,161,202.8,162Zm-49.27,18.22-.34-.15c-.4,1.64-1.61,3-1.48,4.83l.35.11ZM224,136.92l.12.3,6.47-3-.14-.28Zm-16.35,19.37.38.14.63-2.53C207.26,154.26,207.19,154.48,207.65,156.29ZM189.2,142.4l-1.8.91.11.24,3,.38Zm-27.91,38.9,0,.18,6.57-.56,0-.42Zm15.83-7.45-.1-.34-5.52,1.68.09.31Zm49.16-33.36-.11-.3-5.68,2.27.11.26Zm-.12,3.58.17.39,4.62-2-.15-.34Zm4.42-10.61-.14-.44-4.36,1.39.12.37ZM130.86,211l-.25-.23c-1.23,1.4-2.45,2.8-3.68,4.19l.19.17Zm66.42-86.14.12.24,5.38-2.6-.11-.24Zm32.65,23.91.17.32,4.36-2.27-.15-.29ZM80.43,175.88c-1,1.05-.26,1.58.34,2.21C81.74,177.15,80.85,176.65,80.43,175.88Zm9.93-28.74.27,0,1.42-2-1.69.36Zm132.16,6.35-.16-.3-3.45,1.8.15.27Zm-10.27-26.61.08.37,2.8-1.25-.18-.4Zm.65,8.13c.2-.33.42-.65.61-1s.35-.68.53-1C212.85,133.1,212.55,133.84,212.9,135Zm-117,67.73.25-.19-1.92-3.91-.21.1Zm74.4-11.52.1.22,3-1.52-.19-.36Zm34.62-31.11c.23-.44.42-.78.58-1.13a8.5,8.5,0,0,0,.33-.91C204.76,158.52,204.76,158.52,204.93,160.11Zm9-25.51.18.29,2.94-1.71-.16-.27ZM92.8,130.77l2.11-2.22C94.1,129.08,92.83,129.2,92.8,130.77Zm3.9-24.09-.33-.1-1,3.32.27.08Zm46.16,89.74,0,.05-2.59,2.74,0-.06Z"/><path d="M62.4,64.64a17.89,17.89,0,0,1,1.71,1l19.75,15.4q6.14,4.8,12.29,9.57c1.64,1.28,1.78,1.83,1,3.8Q90.06,112.83,83,131.21a3.48,3.48,0,0,1-2,2.09q-16.95,7.6-33.86,15.27c-2.21,1-2.57.93-4.23-.93q-13.56-15.19-27.13-30.4a3.13,3.13,0,0,1-.7-3Q18.71,95,22.23,75.75a2.87,2.87,0,0,1,2.5-2.59q18.18-4.09,36.32-8.27C61.4,64.81,61.75,64.76,62.4,64.64ZM47.89,118.55c-.22-1.91-.45-3.81-.64-5.71-.08-.8-.38-1.24-1.26-1.2-1.79.06-3.6-.07-5.38.13a13,13,0,0,0-8.5,3.93,2.6,2.6,0,0,0-.8,1.41,13.11,13.11,0,0,0,1.86,7.79c2.47,3.83,6.21,4.83,10.47,4.78a2.13,2.13,0,0,0,2.07-1.27A21.31,21.31,0,0,0,47.89,118.55ZM67.5,96.42c3.85,0,7.43-.8,9.83-2.33a1.71,1.71,0,0,0,.79-1.16c0-5.78-2.65-10.84-9.31-11.84-2.42-.37-4.71-.45-6.42,1.93a17.8,17.8,0,0,0-3.13,11.54c0,.31.63.81,1,.87C62.68,95.82,65.09,96.1,67.5,96.42Zm-24.31,4.69a24.6,24.6,0,0,0-5.32-7.21,31.9,31.9,0,0,0-4.64-3.12,1.86,1.86,0,0,0-1.55-.15c-5,2.89-7.39,7.57-5,13.13,1,2.28,1.55,2.72,4,2.72C35.57,106.47,39.39,104,43.19,101.11Zm22.18,10.42c2.74,3,5.55,5.43,9.52,5.91a3.88,3.88,0,0,0,2.31-.22c5-3,7.3-7.84,4.54-13.64a1.25,1.25,0,0,0-1.57-.83A21.93,21.93,0,0,0,71,107C69.1,108.36,67.32,110,65.37,111.53ZM50.62,92.19a19.71,19.71,0,0,0,2.86-7.31,28.34,28.34,0,0,0,.08-5.45,2.8,2.8,0,0,0-2-2.54c-4.45-1.75-8.12-.61-11.07,3.46a2.51,2.51,0,0,0-.15,3.13C42.71,87.56,46.47,90,50.62,92.19Zm10.09,25c-2.83,3.87-5.2,7.89-6,12.56-.62,3.42-.63,3.18,2.84,4,3.72.84,6.52-1,8.74-3.89a4.48,4.48,0,0,0,.73-4.16C66,122,63.65,119.46,60.71,117.15Zm31.63-24c-2.31-.52-4.33-.87-6.28-1.43-2.6-.74-4.31.29-5.62,2.43a9,9,0,0,1-4.9,3.87c-3.17,1.06-6.44,1.82-9.7,2.59a33.4,33.4,0,0,1-4.58.62,5,5,0,0,1-2.28-.1,15,15,0,0,1-3.22-1.92c-1.13-.88-2.1-1.93-3.67-2-.33,0-.64-.42-1-.64-1-.66-1.94-1.36-3-2-.23-.14-.65,0-1,0a2.16,2.16,0,0,0,.29.81c2.79,2.85,5.59,5.69,8.42,8.49a1.5,1.5,0,0,1,.57,1.74,1.44,1.44,0,0,0,.58,1.31c.43.11,1-.24,1.48-.52s.87-.92,1.41-1.13q5.18-2,10.41-3.94c3-1.08,6-2.06,8.93-3.1,3.8-1.33,7.6-2.66,11.39-4A9.43,9.43,0,0,0,92.34,93.19ZM30.88,111.78a4.16,4.16,0,0,1-1.12.72c-1.61.45-3.25.76-4.85,1.23-.83.24-1.09-.06-1.21-.79-.56-3.25-1.13-6.5-1.69-9.76-.12-.67-.23-1.34-.34-2H21.2a21.36,21.36,0,0,0-.36,2.38,32.26,32.26,0,0,0,2.58,14.25,21.33,21.33,0,0,0,5.06,7.89,3.26,3.26,0,0,0,.9.43,9,9,0,0,0,.33-.86c.22-.87.46-1.74.62-2.62a11.9,11.9,0,0,0,.25-2.23c0-.91-.21-1.83-.17-2.73C30.52,115.66,30.73,113.65,30.88,111.78ZM85.4,117l-.36-.22c-.37.41-.75.82-1.11,1.24l-8.51,10.2c-.53.63-1,.61-1.7.14a23.1,23.1,0,0,0-3.89-1.75c-.17-.07-.61.23-.76.47-.67,1-1.2,2.17-1.93,3.15-1.12,1.51-2.62,2.7-2.59,4.9,0,1.15.27,1.77,1.46,1.41a19.27,19.27,0,0,0,3.44-1.37,35.61,35.61,0,0,0,10-8.31A34.57,34.57,0,0,0,85,118.39,8.44,8.44,0,0,0,85.4,117ZM46.67,70.75l.07.57c.93.12,1.85.25,2.78.34A75,75,0,0,1,64,74.1c2.41.72,4.78,1.57,7.19,2.29a14.16,14.16,0,0,0,2.35.34l.17-.5A10.1,10.1,0,0,0,72,75.11c-3.09-1.28-6.14-2.73-9.33-3.69a33.15,33.15,0,0,0-14.45-1.16A10.06,10.06,0,0,0,46.67,70.75Zm-.86,36.48-1.52-3.53c-.43.5-.91.83-1,1.23-.2,1-.91,1.18-1.71,1.4-1,.29-2.06.62-3.06,1a4.94,4.94,0,0,0-1,.74l.15.37C40.41,109.07,43,107.9,45.81,107.23Zm21.24,6.48L65.22,112l-2.12,2.21C65.15,115.88,65.34,115.86,67.05,113.71ZM56.43,90.15,55.66,90c-.37,1.12-.77,2.23-1.09,3.37,0,.13.36.49.61.57s.63-.13.66-.27C56.08,92.48,56.24,91.32,56.43,90.15Z"/><path d="M145.35,103.48c-2.15-.78-4.26-1.65-6.44-2.31-3.09-.93-6.21-1.71-9.33-2.53a.79.79,0,0,0-.74.3,14.1,14.1,0,0,0-1.7-.43,35.07,35.07,0,0,0-13.92,1.42,11.58,11.58,0,0,1-1.18.18c3-.67,5.92-1.48,8.93-2a38.15,38.15,0,0,1,5.76,0l0-.31c-1.24-.2-2.47-.45-3.71-.6-4.49-.55-9-1.14-13.48-1.55a10.05,10.05,0,0,0-6.48,1.06c-.62.39-1.28.73-1.93,1.09l0,0a5.13,5.13,0,0,1,4-2.43L105,95l-3.55.78c.09-.35,0-.86.29-1.06,1.24-1.09.49-2.52.7-3.77a6.74,6.74,0,0,0-1.15-.43c.62-5.42-1.17-11.49,2.46-17l-.35,0c-.2.34-.4.68-.58,1a2.23,2.23,0,0,1-.78,1l.37-2.49-.19-.16-1.18,1.63-.34-5.58-.31,0-.48,3.38-.25,0V68.49h-.37l-.13,2.2-.66-1.1-.53.46V65.33l-.33,0-.21,2.34-1-3.74-.55,1.32,0,0c.19-.88.32-1.78.57-2.64a14,14,0,0,1,.89-1.89,13.88,13.88,0,0,0,1.1,2.46,3.76,3.76,0,0,1,.81,2.62c0,.18.68.42,1,.63l.9-2.9.22.08v7l.29.09,1.52-4.31L103,72.82l2.62-4.33.33.18c.22,2.08-1.06,3.76-1.62,5.5a69.67,69.67,0,0,1,6.12-3.6c2.18-1,4.54-1.64,6.82-2.43l.13.38-3.18,1c-3.75,1.25-7.29,2.84-10,5.84-1.45,1.61-1.33,3.42-.68,5.3a2.88,2.88,0,0,1,.08.93l-.06,8.24a8.94,8.94,0,0,0,.12.94,6.21,6.21,0,0,1,5.43.4,7.63,7.63,0,0,0-1.32.27c-1.46.61-2.9,1.24-4.32,1.93a.91.91,0,0,0-.31.85,1,1,0,0,0,.77.51c.78.11,1.58.09,2.37.14a148.27,148.27,0,0,1,21.33,2.82c4.79,1,9.5,2.31,14.22,3.57a23.83,23.83,0,0,1,3.52,1.55ZM106.94,91.07l-.08-.46-3.19.53.08.44Z"/><path d="M190,80.89c-.34,2.24-1.4,4.2-2.16,6.28l-.38-.12,1.29-5.37-.17-.05-2.91,7.47-.41-.14,1.39-4.36-.24-.08-1.75,4.36-.34-.12,1.87-6.05-.36-.13c-.49,1.21-.94,2.45-1.49,3.64s-1.15,2.28-1.73,3.41l-.3-.13,1.38-4.71-.1,0L181.14,89c.6-1.32,1.21-2.63,1.89-4.12a2.8,2.8,0,0,0-1.94,2.36,12.77,12.77,0,0,1-.54,1.69l-1.3,1.33,1.55-5.19-.3-.14c-1.19,1.72-1.48,4-2.95,5.55l-.29-.15c.27-1.29.54-2.59.82-4l-2.65.74-.15-.3a12.79,12.79,0,0,1,3.84-3.41c4.64-3.09,9.32-6.11,14-9.16.56-.37,1.12-.75,1.66-1.15s1-.79,1.73-.26c.15.12.57,0,.81-.14a11.29,11.29,0,0,1,1.77-.91,3.21,3.21,0,0,0-1.51,3.37l.48-1.05.53.33c0,2.55-1.1,4.76-2.28,7.23l-.52-1.22-.88,1.94-.24-.06V79.43L193,83.21l-.44-.14c-.3-1.82.45-3.54.62-5.35-1.18,2.53-1.66,5.36-3.3,7.67l-.34-.1c.24-1.29.5-2.58.71-3.88,0-.15-.15-.33-.23-.49.06-.62.13-1.25.21-1.87l-.41-.09-1.2,4.63.24.07ZM195.51,75l-.51-.34c-.4.48-1,.91-1.15,1.46-.47,2.08-.78,4.19-1.14,6.29l.4.1Zm-5.43,9,.31.09L192.9,77l-.49-.38c-.42.56-1.07,1.06-1.23,1.68C190.71,80.15,190.43,82.06,190.08,84Zm7.12-10.31-.47-.16c-1.58,2.11-1.31,4.72-1.84,7.11l.35.1Q196.23,77.17,197.2,73.64ZM198.41,75l-.37-.12a9.61,9.61,0,0,0-1.71,5.28l.36.12C197.26,78.52,197.84,76.76,198.41,75Zm-11.52,4-.18-.25c-2.09.93-3.86,2.34-4.05,3.34Zm-9.59,6.13c2.06-.66,3.29-1.65,3.56-2.59Zm6.37,1.95,1.58-4A4.44,4.44,0,0,0,183.67,87.13Zm-1.48-3.62.32.29,1.71-1.7-.3-.3C183.34,82.37,182.24,82.43,182.19,83.51Z"/><path d="M190.85,102.26l-.52-.16c.91-.93,1.84-1.86,2.74-2.8a126.83,126.83,0,0,1,16.49-14.74,6,6,0,0,0,2.38-5.33,24.66,24.66,0,0,0-.28-3,5.34,5.34,0,0,0-4.76-4.15,7.06,7.06,0,0,1-1.58-.21,10.56,10.56,0,0,1,5.86.48l-2-.24a6.51,6.51,0,0,1,3.05,7.3l.41-.08c.62-1.79,1.29-3.57,1.87-5.38.81-2.5,1.53-5,2.35-7.52a4.25,4.25,0,0,0-.74-4c-.54-.74-1-1.49-1.7-2.43l-.16,1.09-.15,0c-.3-1.29-.58-2.57-.89-3.86s-.63-1.41-1.85-.86c-.36.16-.74.28-1.11.42l0,0c.77-.5,1.25-1.57,2.78-1.2l-1.74-8,.33-.1,3.06,5.55-1.14-3.88c.9.82,1.79,3.82,2.48,8.08l-.29.16c-.27-.58-.54-1.16-.89-1.88,0,3.4,3,4.4,4.81,6.32l-.25.28c-.94-.78-1.93-1.5-2.83-2.33S214.88,58,214,57.1l-.43.25a12.27,12.27,0,0,0,1.1,2.44c1.23,1.66,2.63,3.19,2.89,5.39l2.67-2.48-8.94,25-.33-.1.21-1-14,12.81-.18-.17,1.41-1-.23-.19-5.45,3.11c5.27-3.58,9.78-8,14.36-12.45l.17.58.35.34,4.2-4.36c-1.05-1.15.36-1.84.13-2.39-1.1,1-2.21,2.08-3.4,3.07-1.48,1.21-3.13,2.23-4.53,3.53-4.16,3.84-8.24,7.77-12.33,11.68A9.85,9.85,0,0,0,190.85,102.26Zm23.07-45.83.53-.07L214,53.88l-.34,0Zm-1.08-5.26-.33,0,.59,3,.34-.07Z"/><path d="M167,55.38l.44-1-.34-.23L154.91,67.92l.72.78c-1.76-.36-1.38,1.51-2.22,2.18-.54-.94.39-2.2-.5-2.83.67-1.93.19-3.89.12-5.82l-.21,3.33-.37,0,1.05-13.09h.09c0,2.4,0,4.8,0,7.2s-.08,4.91,0,7.36c0,.39.39.77.6,1.15,3.1-3.62,6-7.12,9-10.47,2.33-2.55,4.88-4.9,7.31-7.37,1.15-1.17,2.23-2.41,3.34-3.61.35-.33.83-.59,1-1,.58-1.13,1-2.32,1.54-3.49.42-1,.8-2,1.2-3l-.43-.18-3.31,7.67c-.13-.13-.37-.28-.35-.38a22.81,22.81,0,0,1,2.21-6.79,13.1,13.1,0,0,0,1.62-3.83,5.19,5.19,0,0,1,.85-2.63l.34.08-1.11,5,.88-1.23.26.09a5,5,0,0,0-.28,1c-.1,2.24-1.35,4.07-2.14,6.07a7.34,7.34,0,0,0-.19,1.33l6.52-3,0,0c-1.55.91-3.06,1.93-4.68,2.7a4.58,4.58,0,0,0-2.27,2.72,7.35,7.35,0,0,1-1.2,2.05l1.37-3.42c-1.14,1-2.11,2.06-2,3.81a55.25,55.25,0,0,1-.3,5.59,1.32,1.32,0,0,1-.32.73V55l-.21,0-.36,2.61-.27,0V51.89c-.37,1.25-.66,2.23-1,3.21l0,0c.28-1.73.57-3.46.85-5.19l-.33-.14a9.06,9.06,0,0,0-.57,1.43c-.28,1.29-.47,2.59-.7,3.88h0V53.78l-.64,1.06-.1,0c.29-1.09.59-2.19.89-3.28l-.26-.16c-.21.34-.56.66-.62,1-.19,1.08-.75,2.16-.07,3.27.08.13-.05.39-.09.58-.43,1.7-.8,3.42-1.29,5.1a27.14,27.14,0,0,1-1.15,2.75l-.53-.16c.5-2.72,1-5.45,1.53-8.36l-1,1.08Zm5.5-2.22.41,0c.15-1.46.3-2.91.44-4.36l-.48,0Zm-3.3,1.76-.42-.07L168,59.67l.3,0Z"/><path d="M72.87,52.71c-2.82-2.47-2.85-7.5-.83-9.28,1.37.5,2.58,1,3.84,1.39,1.84.51,3.27-.39,4.67-1.51a23.59,23.59,0,0,1,3.23-1.9c.13-.07.34,0,.25,0a19.73,19.73,0,0,0-3,1.91c-2.44,2.25-4.87,2.73-8,.84a7.4,7.4,0,0,0-.82-.37,6.07,6.07,0,0,0,.18,7.6c-.2-.76-.38-1.34-.48-1.92s-.12-1.21-.18-1.91A5.54,5.54,0,0,1,75,52.19c.32,1.88.38,1.87,1.75,2.54l-2-5.62.3-.1,1.22,3.14.16,0L76,49.26l.34-.1.88,3.17.36-1.25,1.07,1.7.15-.07-.34-1.47.32-.16,1.12,1.78.18-.08-.26-1,.24-.11,2.64,4.79.21-.11L80.8,52.13c1.28,1,2.89,1.57,3.5,3.43a5.81,5.81,0,0,0,2.83,3.85,5.25,5.25,0,0,0,.55.22c.06,0,.14,0,.3-.09L84.28,55l.2-.15,3.17,3.57V56.23c.65.91,2,1.31,1.7,2.86a1.33,1.33,0,0,0,1.36,1.61,1.85,1.85,0,0,1,1.16.8l-1.63-.41-.23.3,1.77,1.13-.33.35-2-1.7-.16.59c-.08,0-.21,0-.22-.06-.47-1.77-2.21-1.89-3.45-2.65a11.19,11.19,0,0,0-1.18-.48,10.19,10.19,0,0,0-2.94-1c-1.37-.16-2.64-1.2-4-1.87-.41-.21-.8-.45-1.46-.84l.47,1.38a4.05,4.05,0,0,0-2.5-2.11c-.53-.18-.85-1-1.27-1.47l.92.69c.37-1.23.21-1.54-1-1.83Z"/><path d="M127,44.27c-.3-1-.59-2-.89-3.06.07-.07.13-.17.18-.16a2.59,2.59,0,0,1,1.95,2.43,2.57,2.57,0,0,0,.49,1.43c1,1.34,2,2.62,3,3.92a.81.81,0,0,1,.17.7l-1.06-.69-.18.18.9,1.81c-2.33-3.08-5.61-3.76-9.12-3.88l.25.54c-.12,0-.24,0-.25,0-.58-1.37-1.93-.82-2.92-1.1-1.89-.53-3.86-.83-4.88-2.81-1.2-2.33-2.17-4.71-1.25-7.4l0,0,.27,1.94a7.61,7.61,0,0,0,2,5.81,12.66,12.66,0,0,0,2.51,1.76l.25-.32L115.39,39l.41-.21.75,1.67.23-.06-.7-2.61.21-.12a8.71,8.71,0,0,1,.88,1.57c.68,2.11,1.28,4.24,1.91,6.36l.41-.09c-.58-2.37-1.17-4.73-1.76-7.1l.25-.09,1.2,2.2v-2l.27-.06,1.14,2.64.11,0-.1-1c1.34.38,1.45,1.56,1.83,2.51s.54,1.76.92,2.59a2.28,2.28,0,0,0,1.07,1l-2.74-6.6.32-.15c.42.92.82,1.84,1.25,2.76.6,1.32,1.2,2.65,1.84,4,.17.34.39,1.09.83.13l0,0,3.8,2,.3-.32-.78-1.44-.65.88-1.7-2.8Zm-7.46-2.09c.2,1.22.22,2.54,1.12,3.44l.31-.14Zm3.22,3.69.44-.22-1.44-2.94-.23.11Z"/><path d="M210.51,108.85c.64-.37,1.27-.74,1.91-1.09a3,3,0,0,0,1.15-.78l-1.45.3,3.1-1.17-.07-.2-4,1.23.06.23.75-.16c-3,.9-6,1.69-8.86,2.74-4.43,1.6-8.79,3.37-13.19,5.07l-.62.24-.11-.28,19.68-8c-2.51.17-5,1.59-7.83,1.6a173.37,173.37,0,0,1,30.2-7.73l.09.39-8,1.56.16.32-2,1,.47.87-4.87,2.18-.11-.24,3.22-1.47-.12-.29c-2.4.93-4.8,1.87-7.21,2.78-.81.31-1.64.57-2.46.85Z"/><path d="M198.93,67.89l-.66,2.18-.38-.08c.36-1.59.24-3.2,1-4.79A16.92,16.92,0,0,0,200.46,60a38.72,38.72,0,0,1,3.32-11.43,2.22,2.22,0,0,1,2.15-1.37c-1.68,1.46-2.63,3.07-2.24,5.38.37,2.14.4,4.33.58,6.63L206.5,58c-2.09,2.05-2.09,2.05-1.92,3.25l2.75-.52.12.44-2,.75,1.48.5.07.3-3.5,1.24,1.72.58v.28l-2.08.18,1.13.77V66l-3.85.3,3.48,2-.43.68Zm2-5.41a7.89,7.89,0,0,1,.83-1.32c.51-.5,1.15-.86,1.65-1.37a1.79,1.79,0,0,0,.47-1.1c0-.59-.26-1.17-.31-1.77-.15-1.72-.25-3.44-.37-5.16l-.35,0-2.53,11.71c2.4.39,4.65,0,5.8-1.18Zm-1.41,3.29h3.67l.06-.29L200,64.42Zm1.93-4,.13.18a11.18,11.18,0,0,0,1.93-.63c.28-.15.36-.66.53-1l-.33-.17Z"/><path class="cls-1" d="M190.85,102.26a9.85,9.85,0,0,1,.85-1.08c4.09-3.91,8.17-7.84,12.33-11.68,1.4-1.3,3.05-2.32,4.53-3.53,1.19-1,2.3-2.08,3.4-3.07.23.55-1.18,1.24-.13,2.39l-4.2,4.36-.35-.34-.17-.58c-4.58,4.43-9.09,8.87-14.36,12.45l-1.23.72Z"/><path class="cls-1" d="M185.59,61.22l2.14-2.61a2.47,2.47,0,0,1-.06.87c-.75,1.56-1.55,3.1-2.34,4.65l-2.14,4q-2.52,3.7-5.06,7.4l-6.6,8.56a3.44,3.44,0,0,1,.14-1.08c.45-1,1-1.85,1.46-2.77l0,0c.74-1.29,1.47-2.59,2.2-3.88l0,0c.56-.79,1.17-1.54,1.68-2.36s.82-1.57,1.23-2.36l1.9-2.6c1.06-1.31,2.18-2.58,3.15-4S184.8,62.56,185.59,61.22Z"/><path d="M139.07,51.76a39.17,39.17,0,0,1-4.16,8.86.53.53,0,0,0,0,.53l2.59-3.32.25.18a6.36,6.36,0,0,1-.33.7c-.71,1.2-1.35,2.44-2.16,3.56s-2,2.28-2.86,3.48c-.74,1-1.35,2-2,3.07l-.29-.17,2.54-4.81-.2-.16L131.25,65l-.23-.18,1.55-3-.42-.21-1.39,2.48-.31-.16c.56-1.15,1.09-2.32,1.68-3.45s1.43-2.39,2-3.65,1-2.51,1.58-3.72l-.28,1.34c1.56-.34,1.67-1.93,2.64-2.54-.76,1.25-1.53,2.48-2.28,3.73L133,60.4l.44.27c1.36-2.1,2.72-4.18,4.07-6.28C138,53.52,138.53,52.64,139.07,51.76Z"/><path d="M151.46,39.81c-2.34-1.72-4.65-3.47-7-5.13a57.37,57.37,0,0,1-9.12-7.48,1.92,1.92,0,0,0-2.92.08,27.08,27.08,0,0,0-2.83,3.33c-1,1.54-1.8,3.24-2.72,4.86a1.83,1.83,0,0,1-.88.78c.82-3.4,3-6,5.08-8.6l-.18-.3-6.24,2-.1-.34c1.75-.57,3.53-1.08,5.25-1.74a39.66,39.66,0,0,0,3.84-1.83,4.19,4.19,0,0,1,3.83-.41L135,26.31c4.7,3.86,9.34,7.67,14.24,11.13a10.8,10.8,0,0,0,2.15.89Z"/><path class="cls-1" d="M247.12,148.59c-1.66.86-3.32,1.71-5,2.59-2,1.08-3.93,2.3-6,3.23a26.39,26.39,0,0,1-5.11,1.49c1.43-.79,2.88-1.54,4.27-2.39s3.2-1.62,4-3.36c.13-.26.59-.38.92-.51l5.11-2,3.29-.72.21.34Z"/><path d="M172.8,34.33a4.2,4.2,0,0,1-.85-.77,6.47,6.47,0,0,1-.48-1.27l-.59.43a1.47,1.47,0,0,1-.11-.25,16.68,16.68,0,0,0-.6-2.86,18.86,18.86,0,0,1-1.45-8.87c.05.93.09,1.86.13,2.78.56-1.87,0-3.94,1.6-5.64a16.06,16.06,0,0,0,.34,11.37c.62-4.19-.65-8.51,1.1-12.59a24.21,24.21,0,0,0-.57,3c-.11,1.47-.08,3-.06,4.42,0,.16.38.32.58.49l-.45,3.67.48.06c.22-1.74.44-3.47.65-5.2l-.4.16q.6-2.4,1.22-4.78l.14,0a3.79,3.79,0,0,1,.06.67c-.42,4.15-.87,8.31-1.24,12.47a6.94,6.94,0,0,0,.43,1.93c.06.29.08.59.12.9Z"/><path d="M212.63,94l-.07,0a6.58,6.58,0,0,1-1,.91c-3.34,1.88-6.72,3.69-10,5.61-1.75,1-3.38,2.22-5.08,3.33-.46.3-.93.57-1.4.85l-.28-.27a6.77,6.77,0,0,1,1.24-1.36c1.93-1.17,4-2.21,5.9-3.37,4.91-2.9,9.76-5.9,14.71-8.72,2.64-1.5,5.44-2.7,8.17-4a9.74,9.74,0,0,1,1-.37l.17.35-1.05.55c-3.75,1.86-7.5,3.72-11.24,5.61A5.8,5.8,0,0,0,212.63,94Z"/><path d="M171.33,123.23a2.61,2.61,0,0,0-.06,1,20,20,0,0,1,.93,3.06c-.28-.71-.59-1.41-.85-2.13a10,10,0,0,0-3-4.53c-1.24-1-2.14-2.31-3.3-3.38s-2.42-2.42-3.72-3.54c-1.54-1.32-3.19-2.51-4.75-3.8a9.24,9.24,0,0,1-1.09-1.31,4.92,4.92,0,0,1,1.27.52c3.07,2.46,6.19,4.87,9.12,7.49a37,37,0,0,1,3.74,4.5Z"/><path d="M220.57,101.5l-1,.45.63.41L197.53,108l-.08-.3,19.35-5.12,0-.19-9.38,1.91-.06-.31,13.15-2.82Z"/><path d="M172.8,34.33l0,.09c.3.21.59.43.89.66,1.55-2,.7-4.7,1.75-6.87-.12,1-.27,1.92-.35,2.88,0,.16.32.34.49.5a25.46,25.46,0,0,1-1.34,3.27c-.5.86-.37,1.37.47,1.94.6-1.73,1.19-3.4,1.78-5.08.25-.7.5-1.4.76-2.1a19.94,19.94,0,0,1-1.5,6.59c.79,1.21-.34,2-.62,3a27.56,27.56,0,0,1-1.33,3.19,1.39,1.39,0,0,1-.55.59c.78-2.13,1.46-4.25.37-6.82-.61,1.39-1.08,2.46-1.54,3.54l-.21-.09c.32-.8.59-1.64,1-2.41a1.76,1.76,0,0,0-.16-2.28C172.65,34.85,172.78,34.55,172.8,34.33Z"/><path d="M166.08,58.09c-.19,1-.34,2-.57,3-.4,1.75-.82,3.49-1.3,5.22a26,26,0,0,1-1,2.49l-.39-.1c.35-2,.7-3.94,1.1-6.21l-.61,1-.26-.1c.66-2,1.27-4,2-6,.14-.37.71-.59,1.08-.88Z"/><path d="M133.47,53.63l.35-1.91-.24-.07-1.12,3.21a13.16,13.16,0,0,1,1.26-4.61,2.77,2.77,0,0,0-.09-2.74c-.11-.22,0-.55,0-.82l.18-3.16h.36v4.71l.46.05a5.38,5.38,0,0,1,.25-1.07c1.09-2.53,2.3-5,4.48-6.82a1.8,1.8,0,0,1,.55-.21l-3.37,3.9.23.25.4-.15c-.14.66-1,1.18-.42,2,0,0-.36.29-.48.49-.45.73-.88,1.47-1.31,2.21l.49.24,0,0Z"/><path d="M89.42,40.79a4.6,4.6,0,0,1,1.13.17q6.12,2.53,12.22,5.13a21.68,21.68,0,0,1,1.91,1,1.8,1.8,0,0,1-2-.08,25.93,25.93,0,0,0-3.22-1.26c-2.54-1.14-5.05-2.34-7.57-3.52l-2.48-1.16Z"/><path class="cls-1" d="M74.16,165.94a21.1,21.1,0,0,0,5.5-4,15.1,15.1,0,0,1,2.81-1.67l.21.25c-1.07,1-2.13,2-3.21,3-1.45,1.32-3,2.56-4.35,3.92-.94.92-1.56.5-2.33-.33l.86-.82Z"/><path d="M182.76,214.23c-1.38.83-2.69.26-4,0a17.18,17.18,0,0,1-2.59-.88c-2.08-.86-3.63-.25-5,1.44a41,41,0,0,0-5.44,8.68c-.28.6-.57,1.19-1,2-.08-.44-.18-.64-.12-.75,2-3.94,3.87-7.93,7-11.15a3.63,3.63,0,0,1,3.92-.94q3,.83,6,1.57A5.41,5.41,0,0,0,182.76,214.23Z"/><path d="M135.49,49.13l.82-1.67a5.24,5.24,0,0,1-.67,4.41A67.88,67.88,0,0,0,133,58.26a6,6,0,0,1-1.66,2.06l2.21-4.79-.9-.09c.28-.65.55-1.25.81-1.85-.06.41-.11.81-.16,1.22a18.82,18.82,0,0,0,1.91-3.91,7.58,7.58,0,0,0,.23-1.8Z"/><path d="M151.44,38.38A4.2,4.2,0,0,1,154,40.69a12.31,12.31,0,0,0,2,2.36l-1.38-.7c1.18,1.92.46,3.74.47,5.52,0,2.2,0,4.4-.2,6.6-.44-2.74-.88-5.43-.13-8.23a4.8,4.8,0,0,0-1.36-5c0-.28.14-.67,0-.82C152.8,39.68,152.1,39,151.44,38.38Z"/><path d="M216.42,187.67v5.66a21.46,21.46,0,0,1,2.52-1.12c1.5-.44,2.23.28,2.13,1.87-.15,2.4-1.91,3.24-3.62,4.15l-.2-.23c.58-.37,1.13-.79,1.73-1.11a3.5,3.5,0,0,0,1.71-3.33,1,1,0,0,0-1.23-1.06,2.85,2.85,0,0,0-2.75,3.28,17.72,17.72,0,0,1-.06,2.3C216,196.4,215.73,189,216.42,187.67Z"/><path d="M192.49,45.22,191.57,44l2.33,1.56c-.23-6-.81-11.82-.3-17.69q.32,9.23.65,18.46l-1.78-1.13Z"/><path d="M208.16,202.94c0-1.07,0-2.14,0-3.21,0-2,.69-2.77,2.71-3.15a1.59,1.59,0,0,0,.68-.38,7.26,7.26,0,0,1,1-1,2.49,2.49,0,0,1,1.58-.41c.34.11.63.88.65,1.36a27.49,27.49,0,0,1-.21,3l-.33,0c.07-1,.19-2,.17-3,0-.37-.27-1-.54-1s-.81.2-1.14.44a2.11,2.11,0,0,0-1,2.3,14,14,0,0,1-.21,3.33l-.35,0a20.06,20.06,0,0,0,.2-2.56c0-.5-.21-1.22-.55-1.4a1.49,1.49,0,0,0-1.39.43,5.55,5.55,0,0,0-.88,2.25,21.71,21.71,0,0,0,0,3Z"/><path d="M160.76,66.08c-.38.86-.73,1.72-1.14,2.57a2,2,0,0,1-.71.76c.14-3,.92-5.81,3.19-7.85A6.32,6.32,0,0,1,161,65.32a2.43,2.43,0,0,0-.24.79Z"/><path class="cls-1" d="M139.07,51.76c-.54.88-1,1.76-1.6,2.63-1.35,2.1-2.71,4.18-4.07,6.28L133,60.4l2.84-4.78c.75-1.25,1.52-2.48,2.28-3.73l1.06-1.17.29.19Z"/><path class="cls-1" d="M87.27,153.67,89,151a26.88,26.88,0,0,1-.06,3.72c-.07.45-.79.84-1.28,1.16-.74.5-1.54.93-2.27,1.36.19-.53.38-1.07.58-1.6Z"/><path d="M95.94,65.22a5.5,5.5,0,0,0,.16,1.15,26.07,26.07,0,0,0,1.34,3.44c.81,1.54,1.78,3,2.68,4.49.07.11.13.23.3.55-3-2.37-8.73-16.59-6.93-20.85.2,2.1.37,4.58.72,7a19.64,19.64,0,0,0,1,3.55c.1.27.49.45.74.67Z"/><path d="M148.39,91.11c-1.85-.61-3.68-1.26-5.54-1.82a34.88,34.88,0,0,0-17.25-.52,5.58,5.58,0,0,1-.69.13c-.1,0-.21-.05-.35-.36,2.43-.28,4.85-.67,7.29-.82a35.14,35.14,0,0,1,15.92,3,2.4,2.4,0,0,1,.59.47Z"/><path d="M166.08,58.09l.1-1.55.77-1.16.21,1.28a3.1,3.1,0,0,1,.07.9q-1,5.05-2.09,10.09a3.22,3.22,0,0,1-.25.62l-.31-.07c.71-3.45,1.42-6.9,2.14-10.42Z"/><path class="cls-1" d="M177.3,29.62c-.26.7-.51,1.4-.76,2.1-.59,1.68-1.18,3.35-1.78,5.08-.84-.57-1-1.08-.47-1.94a25.46,25.46,0,0,0,1.34-3.27c.36-.69.7-1.39,1.09-2.06C176.75,29.47,177.1,29.59,177.3,29.62Z"/><path class="cls-1" d="M145.35,103.48l0-.62,0,0,5.92,2.66c.93.6,1.89,1.17,2.79,1.81a5.08,5.08,0,0,1,.84.94,9.27,9.27,0,0,1-1.19-.41c-2.64-1.34-5.27-2.71-7.9-4.07A2.66,2.66,0,0,1,145.35,103.48Z"/><path d="M185.33,64.13c.79-1.55,1.59-3.09,2.34-4.65a2.47,2.47,0,0,0,.06-.87c.87-1.42,1.76-2.83,2.62-4.25a10.93,10.93,0,0,1,1.31-2A87.07,87.07,0,0,1,185.33,64.13Z"/><path d="M140.36,40c.92-.56,1.82-1.16,2.77-1.67a13,13,0,0,1,1.78-.65l.16.26A17.4,17.4,0,0,1,143.54,39a13.11,13.11,0,0,0-5,4.13c-.22.32-.69.48-1,.72a6,6,0,0,1,.64-1.1c.74-.81,1.54-1.57,2.3-2.37C140.51,40.32,140.4,40.12,140.36,40Z"/><path d="M119.18,65a20.64,20.64,0,0,1-3.05-2.3c-1.58-1.68-3-3.53-4.44-5.31-.07-.08-.06-.22.09-.47L119.17,65Z"/><path d="M180.57,22.44c0,.3,0,.71-.16.89a34.53,34.53,0,0,1-3,2.91,5.8,5.8,0,0,1-2.39,1l5.29-4.88Z"/><path class="cls-1" d="M235.06,133.24c-2.11,1-4.09,2.36-6.45,2.74l-.15-.31,5-2.53Z"/><path d="M174.73,15.38l5.36,2.52c.12.06.3,0,.84,0l-3.67-2.06.12-.21,1.37.71.11-.14-.61-.72a21,21,0,0,1,3.21,2.64A9.22,9.22,0,0,1,174.73,15.38Z"/><path d="M124.23,69.23l1-.64-.09-.2-1.74.38,0-.1L130,66.53l.08.09-1,.71,1,.16-.54,1.18c-.34-1.32-1.18-.9-1.84-.67-1.16.39-2.27.91-3.4,1.38Z"/><path d="M221.66,98,210,100.17A42.87,42.87,0,0,1,221.66,98Z"/><path d="M113.42,36.2c.14-.77.25-1.55.43-2.31a.78.78,0,0,1,.45-.47c1.55-.39,3.11-.75,4.75-1-.87,1.08-2.37,1.25-3.41,2.1-.23-.15-.51-.47-.68-.42a2.17,2.17,0,0,0-1.1.69,4.71,4.71,0,0,0-.47,1.4Z"/><path d="M94.64,60.66c.63-2.56,2.33-4.4,4.19-6.13L94.9,60.86Z"/><path d="M200.78,206.61c-1,1.35-2.19,1.88-3.23,1.53a2.26,2.26,0,0,1-1.47-2.35,3.14,3.14,0,0,1,1.55-2.76c.74-.22,1.51.11,2.28,1.14-1.23-.74-2.25-1.27-3,.18a2.54,2.54,0,0,0,.27,3.09C198.47,208.53,199.44,207.35,200.78,206.61Z"/><path d="M173.28,109.21c.25.44.44.87.71,1.25,1.69,2.41,3.41,4.82,5.11,7.24l-.34.23c-2-2.82-4-5.63-6-8.46Z"/><path d="M185.59,61.22c-.79,1.34-1.5,2.72-2.38,4s-2.09,2.65-3.15,4a8.43,8.43,0,0,1,.73-1.58C182.36,65.45,184,63.34,185.59,61.22Z"/><path class="cls-1" d="M230.88,146.05l1.34-.57.15.35-6.61,3.09-.22-.46,5.38-2.42Z"/><path d="M176.28,98.32V105l-.77.39c.13-2.29.26-4.68.4-7.08Z"/><path d="M91.14,57.36l-.45-1.51.35-.12,2.28,6-.21.08-3.33-6.2.32-.16L91,57.43Z"/><path d="M176.3,89.51l1.2,10.36-.33,0c-.37-3.47-.73-6.94-1.1-10.41Z"/><path d="M123.22,230.9c-2.42,1.28-4.82,2.59-7.26,3.84-.91.47-1.89.8-2.83,1.2l0,0c2.29-1.2,4.57-2.41,6.87-3.58,1-.53,2.14-1,3.21-1.47Z"/><path d="M223.65,190v5.45C222.81,194.16,222.79,190.89,223.65,190Z"/><path d="M164.34,101.14l7.45,6.88-.21.22-7.47-6.87Z"/><path class="cls-1" d="M180.55,88.94a12.77,12.77,0,0,0,.54-1.69A2.8,2.8,0,0,1,183,84.89c-.68,1.49-1.29,2.8-1.89,4.12l-.38.37Z"/><path d="M114.94,37.48l2,6.54a18,18,0,0,1-2.29-6.46Z"/><path d="M171.17,55.1,170,60.43l-.47-.1q.48-2.59,1-5.21h0v1.72h.16l.59-1.69Z"/><path d="M178.13,75.57q2.53-3.7,5.06-7.4A20.65,20.65,0,0,1,182,70.44C180.72,72.18,179.41,73.86,178.13,75.57Z"/><path class="cls-1" d="M151.44,38.38c.66.66,1.36,1.3,2,2,.13.15,0,.54,0,.82l-1.95-1.39-.09-1.48Z"/><path class="cls-1" d="M231.43,129.3,228,130.7l-.14-.31c1.46-.72,2.92-1.45,4.4-2.14.07,0,.27.22.41.34Z"/><path d="M206.35,199.62a27.05,27.05,0,0,1,.09,4,1.87,1.87,0,0,1-3,1.2c2.32.29,3.15-.87,2.68-3.75-.07-.48-.17-1-.26-1.44Z"/><path class="cls-1" d="M135.46,49.1a7.58,7.58,0,0,1-.23,1.8,18.82,18.82,0,0,1-1.91,3.91c.05-.41.1-.81.16-1.22v0C134.13,52.12,134.8,50.61,135.46,49.1Z"/><path d="M162.45,64.68c.2.14.58.32.56.42-.31,1.5-.68,3-1,4.47l-.36-.07c.3-1.63.59-3.25.89-4.88Z"/><path d="M162.45,64.68l.06-.06c-.31.58-.63,1.15-.94,1.72l0,0,1.33-5.65.45.11Z"/><path class="cls-1" d="M172.12,23.25l.4-.16c-.21,1.73-.43,3.46-.65,5.2l-.48-.06.45-3.67Z"/><path class="cls-1" d="M140.36,40c0,.13.15.33.1.38-.76.8-1.56,1.56-2.3,2.37a6,6,0,0,0-.64,1.1l-.31.34-.4.15-.23-.25,3.37-3.9Z"/><path d="M125.92,46.22c-1.76-1.4-1.79-3.6-2.68-5.4l.32-.15,2.32,5.58Z"/><path d="M148.36,91.14c1.71.78,3.43,1.55,5.12,2.37A5.53,5.53,0,0,1,155.35,95c-.79-.47-1.57-1-2.37-1.4-1.53-.83-3.06-1.64-4.59-2.45Z"/><path d="M160.75,66.11l.37-.43.48.69,0,0-1.07,3.77-.39-.11c.22-1,.47-1.91.67-2.87a4.71,4.71,0,0,0,0-1.06A.23.23,0,0,1,160.75,66.11Z"/><path d="M192.61,109.24l3.84-2.58.21.33-3.76,2.68Z"/><path class="cls-1" d="M113.39,36.17a4.71,4.71,0,0,1,.47-1.4,2.17,2.17,0,0,1,1.1-.69c.17,0,.45.27.68.42h-.18c-.81-.09-1.14.44-1.3,1.09-.21.84-.36,1.69-.53,2.54h0Z"/><path d="M234.55,82.22l-5.1,2.38-.11-.24,5.06-2.53Z"/><path d="M173.13,80.28c-.49.92-1,1.82-1.46,2.77a3.44,3.44,0,0,0-.14,1.08l-1.36,1.1-.14-.07Z"/><path d="M136.36,52.69c.72-1.44,1.44-2.89,2.17-4.33l.31.15-2.18,4.33Z"/><path d="M109.34,54.05l-2.56-4.74.2-.11q1.33,2.37,2.66,4.74Z"/><path d="M89,54.44l1.85,5.26-.3.11-1.82-5.22Z"/><path d="M151.19,105.49l-5.92-2.66Z"/><path d="M127,44.27l-.14.26a6,6,0,0,1-1.76-4Z"/><path d="M192.49,45.22l0,0c-1-.31-1.94-.59-2.88-.94-.73-.28-1.42-.66-2.13-1l.12-.29Z"/><path d="M119.17,65c.36.71.71,1.43,1.09,2.12a7.69,7.69,0,0,0,.61.8l-.32.28c-.62-.79-1.27-1.55-1.83-2.38-.08-.12.29-.54.46-.82Z"/><path d="M101.18,47.84l-4.82,1.71-.08-.26,4.81-1.68Z"/><path d="M158.71,96.78l4.12,3.23-.17.22L158.53,97Z"/><path d="M178.16,71.77c-.41.79-.77,1.61-1.23,2.36s-1.12,1.57-1.68,2.36Z"/><path d="M175.29,76.44c-.73,1.29-1.46,2.59-2.2,3.88C173.83,79,174.56,77.73,175.29,76.44Z"/><path d="M246.16,156.72l4.66-1.85.09.24-4.77,1.59Z"/><path d="M127.78,228.5l-4.56,2.4,0,0,4.56-2.39Z"/><path class="cls-1" d="M212,107.21l-.75.16-.06-.23,4-1.23.07.2-3.1,1.17A.19.19,0,0,0,212,107.21Z"/><path d="M210.28,56.8l-3.4,2.93c1-1.13,1.76-2.56,3.43-2.91Z"/><path d="M182.45,42.39a7,7,0,0,1,4.43-1.27l-4.46,1.25Z"/><path d="M185,21.32l3.76,1.91-.11.24L185,21.57Z"/><path d="M113.63,38.12c.17-.85.32-1.7.53-2.54.16-.65.49-1.18,1.3-1.09a2.48,2.48,0,0,0-1.13,1.93A9.52,9.52,0,0,1,113.63,38.12Z"/><path d="M176.25,128.77l-2.67-3.28Z"/><path class="cls-1" d="M120.32,217.87c2.54-3.06,5.08-6.14,7.63-9.2,3.12-3.76,6.27-7.5,9.39-11.28,1.61-1.95,3.16-3.95,4.75-5.92,1.39-1.71,2.79-3.4,4.06-5.26l-.67.49a53.34,53.34,0,0,0-1.45-6.33,44.5,44.5,0,0,0-7.83-14c-.07-.08-.21-.1-.31-.16-1.61-1.87-3.21-3.75-4.83-5.62a11.1,11.1,0,0,0-.86-.82,3.62,3.62,0,0,0-.41-.81c-.91-1-1.83-2-2.8-2.92-1.3-1.26-2.65-2.46-4.08-3.78l.69-.05,2.15,1.41q2.22,1.58,4.45,3.12c.5.35,1,.66,1.56,1l2.43,2.44c.6.81,1.15,1.67,1.83,2.42a107.44,107.44,0,0,1,13.64,18.52,8.59,8.59,0,0,1,1.22,2.56,2.91,2.91,0,0,1-.59,2.18c-3.12,3.66-5.51,8-9.26,11.07a.47.47,0,0,1-.44.09l1.73-2-.23-.21-5.45,6,1.12-1.85-.24-.16-3.14,4.28c-1.21,1.3-2.46,2.56-3.6,3.91-4.74,5.54-9.43,11.12-14.17,16.66-1.21,1.42-2.54,2.73-4,4.25v-.72Q116.49,222.55,120.32,217.87Z"/><path class="cls-1" d="M171.3,132.39l.85-.79c-3.83,14.73-10.43,28.12-16.71,41.67.33-1.64.63-3.29,1-4.92.74-3.18,1.52-6.35,2.27-9.53a3.76,3.76,0,0,0,0-.59l0,0a6.34,6.34,0,0,0,.42-.82c.84-2.41,1.64-4.82,2.5-7.22.43-1.19,1-2.35,1.43-3.52l0,0c.5-.85,1-1.68,1.49-2.54,1-1.8,1.9-3.62,2.85-5.43l0,.05,3.38-5.67Z"/><path class="cls-1" d="M138.31,193.17l1.48-1.11,1.63-1.14c0,.2,0,.46-.08.59-2,2.4-3.94,4.82-6,7.18q-11,12.8-22.08,25.55c-1.54,1.78-3.13,3.52-4.68,5.29a11.07,11.07,0,0,0-.7.95l-.46-.25c.13-.55.27-1.11.41-1.67l1-1.38a2.42,2.42,0,0,1,.29-.72c1-1.16,2-2.29,2.93-3.45,5-5.92,9.88-11.91,14.94-17.75,2.61-3,5.52-5.75,8.26-8.64,1-1.08,2-2.25,3-3.37Z"/><path class="cls-1" d="M101.16,97.8c.65-.36,1.31-.7,1.93-1.09a10.05,10.05,0,0,1,6.48-1.06c4.5.41,9,1,13.48,1.55,1.24.15,2.47.4,3.71.6l0,.31a38.15,38.15,0,0,0-5.76,0c-3,.47-6,1.28-8.93,2L108,101.62c-1.83.15-3.66.31-5.49.43-.12,0-.26-.24-.39-.37l0,0a16.71,16.71,0,0,1,2.52-1.07c1.52-.39,3.08-.62,4.89-1l-4.23-.52,0-.13,4.12-.73c-1.85-1.35-5.62-.63-9.18,1Z"/><path d="M120.33,209.3c1.49-2,2.89-4.12,4.5-6,3.15-3.75,6.42-7.4,9.65-11.1a.46.46,0,0,0,.1-.5c-1.84,1.79-3.72,3.55-5.52,5.37a200.65,200.65,0,0,0-15.47,17c-2,2.48-3.94,4.92-6,7.35a4.5,4.5,0,0,1-1.5,1.05C117,208.25,128.81,195,143.07,184.15l.3.29c-.48.45-.93.93-1.43,1.34a102.12,102.12,0,0,0-14.25,14.63c-2.23,2.71-4.38,5.49-6.58,8.23a4.54,4.54,0,0,1-.8.63Z"/><path d="M138.24,193.25c-1,1.12-1.92,2.29-3,3.37-2.74,2.89-5.65,5.63-8.26,8.64-5.06,5.84-10,11.83-14.94,17.75-1,1.16-2,2.29-2.93,3.45a2.47,2.47,0,0,0-.29.71c-.12-.09-.31-.29-.36-.26-.55.35-1.07.73-1.6,1.11l0,0a11,11,0,0,1,3-4.05,18.61,18.61,0,0,0,2.2-2.67c.52-.58,1.23-1,1.73-1.58,2.55-3,5-6.13,7.61-9.07,4.62-5.17,9.34-10.23,14-15.34a19.26,19.26,0,0,1,1.71-1.67A3.43,3.43,0,0,1,138.24,193.25Z"/><path class="cls-1" d="M88,178.46l2.66-2,.26.24-4.6,6.1,1.64-.53-1.71,1.81c-1-1.45-2-2.79-2.94-4.18a1,1,0,0,1,.13-1c1.32-1.33,2.7-2.59,4.2-4a10.78,10.78,0,0,0-.88,1.14c-.89,1.53-1.74,3.06-2.61,4.6l.25.26,2.3-1.67Z"/><path d="M166,154.71c.59-1.54,1.17-3.09,1.76-4.63q3.45-8.9,6.91-17.79c.25-.65.55-1.28.83-1.92l.27.11c-.33.91-.64,1.83-1,2.73q-4.17,10.41-8.35,20.8a3.33,3.33,0,0,1-.46.67Z"/><path class="cls-1" d="M99.67,131.18a5.63,5.63,0,0,1-.72.88c-2.09,1.64-4.21,3.26-6.43,5,.08-.3.08-.6.22-.73C94,135.16,95.28,134,96.59,133a16.15,16.15,0,0,1,1.94-1.32,5.79,5.79,0,0,1,1.17-.41Z"/><path d="M123.6,152.26l-.69.05c1.43,1.32,2.78,2.52,4.08,3.78,1,.93,1.89,1.93,2.8,2.92a3.62,3.62,0,0,1,.41.81l-9.74-9.41.13-.22Z"/><path class="cls-1" d="M88.89,161.91c.11.11.32.29.31.3a7.76,7.76,0,0,1-1.06,1.28A39.54,39.54,0,0,1,83.33,167l1-1Z"/><path d="M163.06,146.71c-.48,1.17-1,2.33-1.43,3.52-.86,2.4-1.66,4.81-2.5,7.22a6.34,6.34,0,0,1-.42.82c1.06-3.14,2.09-6.28,3.19-9.41A15.4,15.4,0,0,1,163.06,146.71Z"/><path class="cls-1" d="M86.12,167.16l.21.15c-1.6,1.88-2.89,4-5,5.43l-.24-.23,4.68-5Z"/><path d="M135.1,138l-2.31,10.11h-.26c0-.16-.12-.33-.08-.47.75-3,1.5-6,2.27-9a2.43,2.43,0,0,1,.41-.63Z"/><path d="M135.13,138c.11-1,.18-2.07.34-3.09.28-2,.6-3.91.93-5.85a2.77,2.77,0,0,1,.34-.72l0,0q-.81,4.81-1.61,9.65Z"/><path d="M120.31,209.27c-.08.34,0,.75-.24,1a49.81,49.81,0,0,1-4.35,5.19l4.61-6.16Z"/><path d="M167.37,138.79c-1,1.81-1.88,3.63-2.85,5.43-.47.86-1,1.69-1.49,2.54.81-1.67,1.59-3.35,2.46-5C166,140.74,166.74,139.78,167.37,138.79Z"/><path d="M102.81,112.31l-5.61,1C97.46,112.35,99.78,111.86,102.81,112.31Z"/><path d="M137.55,122.69c0-2.17.86-4.21,1.31-6.31-.21,1.23-.37,2.48-.66,3.71-.2.84-.19,1.49.74,1.89l-.86-.2-.55.88Z"/><path d="M143.19,123.93,149,127.7l-.15.23L143,124.15Z"/><path d="M131.76,157.77c-.52-.32-1.06-.63-1.56-1q-2.23-1.54-4.45-3.12Z"/><path class="cls-1" d="M96.49,116.68l-.9.7-.3-.39,2.55-2,.29.22-.18.64Z"/><path d="M170.72,133.17l-3.38,5.67Z"/><path class="cls-1" d="M95.91,138.36,93.76,141l-.32-.25,2-2.45Z"/><path d="M137.53,122.66q-.42,2.84-.82,5.65l0,0,.81-5.65Z"/><path class="cls-1" d="M127.8,228.53l-4.56,2.39c-1.07.49-2.16.94-3.21,1.47-2.3,1.17-4.58,2.38-6.87,3.58a3.49,3.49,0,0,1,.33-1.12q4.31-5.73,8.68-11.41a4,4,0,0,1,1.16-1q10-5.73,19.94-11.43c.07,0,.15,0,.31.06A215,215,0,0,1,122.71,224l.2.41a5.28,5.28,0,0,0,.89-.34c5.35-3.18,10.71-6.35,16-9.56,3.32-2,6.57-4.1,9.93-6,6.78-3.87,13.61-7.64,20.42-11.45a1.39,1.39,0,0,1,.69-.19q-17.1,12.42-33.41,25.85c.93-.66,1.86-1.3,2.77-2,5.6-4.18,11-8.62,16.82-12.49,6.63-4.43,13.6-8.37,20.44-12.5a4.11,4.11,0,0,1,1.35-.22,4.74,4.74,0,0,0,1-.26,13.61,13.61,0,0,1,2.7-1l-16.42,9.45.14.23,27.5-15.14.12.23-9.36,5.7-23.22,14.17a6,6,0,0,0-.86.74l-4.39,2.23.22.39,4.14-2.64c2.18-1.23,4.4-2.4,6.55-3.69q13.77-8.25,27.51-16.54a.76.76,0,0,1,.69-.11c-2.6,1.6-5.19,3.22-7.8,4.8-9.95,6.06-19.86,12.18-29.87,18.13-5.9,3.51-11.93,6.78-17.94,10.08-3.56,1.95-7.22,3.74-10.82,5.61A7.76,7.76,0,0,0,127.8,228.53Z"/><path class="cls-1" d="M141.59,205.38a18.74,18.74,0,0,1-2.1,1.5c-1.93,1-3.9,1.93-5.86,2.89l-.19-.27,17.29-16.68-.29-.34c-1,.87-2.05,1.75-3.09,2.61-.44.37-.91.71-1.36,1.06l-3.92,3.57-.65.34-.21-.25c1.31-1.35,2.65-2.69,3.93-4.07q1.67-1.78,3.22-3.68c.18-.21.1-.63.15-1l-.35-.09-2.39,1.93-.17-.14,2.86-4.05.38,1.44c.9-1.79,1.66-3.28,2.46-4.86l.87.75c.47-1.23.9-2.36,1.32-3.49a11.85,11.85,0,0,0,6.64.62c2.56-.36,5.15-.51,7.71-.88,1.64-.24,3.25-.71,4.91-1l-13.81,7.4.15.28,2.59-1.33.09.16-12.58,8.56.19.31a184.66,184.66,0,0,1,33.34-18.08l.15.27-17.43,9.36.13.28,2.16-1,.1.2-11.06,6.52.15.27,4.8-2.7.11.19c-2.21,1.4-4.44,2.78-6.64,4.2q-4.87,3.17-9.72,6.37a21.12,21.12,0,0,0-1.65,1.35Z"/><path class="cls-1" d="M148.73,202.61,133.5,213.26c8.63-5,16.18-11.65,25.23-16l.19.29L154,200.83l.14.26c5.91-3.67,11.73-7.53,18.49-9.6l-22.28,13.19.16.28,19.38-11.05.09.13c-1.1.71-2.19,1.44-3.31,2.13-6.35,3.9-12.68,7.85-19.1,11.66a47.8,47.8,0,0,1-5.87,2.65,9.8,9.8,0,0,1-1.8.41l.11.48,2.35-.78.12.25L124,221.55l-.17-.21c1.08-1.39,2.16-2.78,3.26-4.17,1.36-1.72,2.77-3.39,4.09-5.15a4.05,4.05,0,0,1,3.11-1.74c.54,0,1.37-.11,1.56-.44.82-1.49,2.49-1.45,3.68-2.26,1.34-.92,2.86-1.59,4.28-2.4s2.88-1.71,4.33-2.56a2.75,2.75,0,0,1,.5-.2Z"/><path class="cls-1" d="M180.16,132c-.6-1.8-.4-2.16,1.12-2.81,7.61-3.25,15.21-6.55,22.82-9.79,3.63-1.54,7.3-3,11-4.47a11.81,11.81,0,0,1,1.45-.36l.16.39c-2.46,1.17-4.86,2.5-7.39,3.5-9.47,3.74-18.87,7.61-27.73,12.68C181.08,131.44,180.63,131.74,180.16,132Z"/><path class="cls-1" d="M120.86,224l-12.45,17c-.29-1.4-.56-2.59-.76-3.79a1,1,0,0,1,.3-.72c3.19-3.21,6.4-6.41,9.59-9.62.76-.76,1.48-1.55,2.24-2.3a10.62,10.62,0,0,1,1-.74Z"/><path class="cls-1" d="M183.53,140.65l-1.9.36c.77-2,22.91-12.54,29.1-13.81l-24.44,11.2.16.35,9.39-4.24.12.26q-4.4,2.11-8.8,4.21c-1.21.58-2.44,1.14-3.66,1.7Z"/><path class="cls-1" d="M183.5,140.68c1-.33,2.11-.59,3.11-1,2.36-1,4.69-2.12,7.14-3L191.48,138l.13.21,1.1-.48c-2.16,1.34-3,4.15-5.51,5a51.84,51.84,0,0,1-5.51,1.29v-2.46l1.84-.93Z"/><path class="cls-1" d="M177,178.23l-5.08,1.55-.17-.46,4.61-1.81-.17-.38c-1.51.63-3,1.3-4.53,1.89a14.25,14.25,0,0,1-2.82.84c-3.1.49-6.21.88-9.43,1.13a55.47,55.47,0,0,1,6.92-2.57c3.08-.72,6.28-1,9.42-1.42C176.51,176.89,177,177.07,177,178.23Z"/><path class="cls-1" d="M182.35,136.5l3-1.75a122.45,122.45,0,0,1,20.14-9.37c-.73.38-1.45.77-2.19,1.14s-1.5.74-2.24,1.12c-4.76,2.43-9.49,4.91-14.28,7.28a5.83,5.83,0,0,0-2.12,2.24L182,138.89c-.85.17-1.13-.09-.64-.88.33-.52.68-1,1-1.55Z"/><path class="cls-1" d="M181.82,134.23l.06-.72.15,0c4.21-2.16,8.35-4.47,12.65-6.44,5.46-2.5,11-4.72,16.67-6.84l-29.23,13.81Z"/><path class="cls-1" d="M241.79,145c-6.81,4-13.34,8.44-21.22,10.23l21.05-10.56Z"/><path class="cls-1" d="M208.88,158.53l2.12-.95.1.21-2.67,1.34c.13-2.25.21-2.22,2.12-3,4.7-2,9.36-4.06,14-6.07,1.71-.74,3.44-1.41,5.16-2.11l.22.51-21.27,9.7Z"/><path class="cls-1" d="M158.18,196.71l14.52-9.41.24.28c-1.11.91-1.32,2.45-2.81,3.2-3.85,1.91-7.59,4-11.38,6.06a3,3,0,0,1-.42.14Z"/><path class="cls-1" d="M182,133.54l-.15,0-1.62.93a6,6,0,0,1,.37-2,3.83,3.83,0,0,1,1.56-1.24q5.91-2.9,11.86-5.71a34.88,34.88,0,0,1,5.13-2l-14.51,6.92.1.21,8.4-3.83.11.23c-1.71.85-3.43,1.67-5.12,2.54s-3.13,1.6-4.63,2.5A9.11,9.11,0,0,0,182,133.54Z"/><path class="cls-1" d="M219,149.7c4.59-2.36,8.76-5.64,14.21-6.58C229.06,146.91,223.81,147.83,219,149.7Z"/><path class="cls-1" d="M120.32,217.87q-3.82,4.68-7.67,9.34l-3.12,3,.68.15-1.93,2.15-.44-.18c.14-.55.11-1.24.44-1.61,4.37-5,8.78-9.91,13.19-14.84,0,0,.08,0,.28-.07Z"/><path class="cls-1" d="M210.75,153.6,223,148.78c.35-.14.71-.26,1.06-.39l.16.39-15.08,7c.17-1.05.3-1.84.42-2.64l.4-.23.61,1.55L211,154l-.27-.42Z"/><path class="cls-1" d="M181.82,134.23l.3-.16a7.51,7.51,0,0,0,1.67-.36c4.16-1.88,8.31-3.8,12.6-5.48l-1,.55c-3.58,1.89-7.19,3.74-10.74,5.7a14.54,14.54,0,0,0-2.3,2l0,0-1.62.86.33-1-.65-1.36Z"/><path class="cls-1" d="M81.68,176.92c-1.18-1.55-1.34-1.94-.07-3.1,1.87-1.71,4-3.16,6-4.72l.28.3Z"/><path class="cls-1" d="M172.58,196.57l1,.89-13,8.2-.17-.25Z"/><path class="cls-1" d="M183.14,175.41c1.11-1.56,10.42-7,12-7A50.5,50.5,0,0,1,183.14,175.41Z"/><path class="cls-1" d="M213.37,122.68c-3.72,3.42-8.57,4.48-13.06,6.31l-.13-.27,13-6.4Z"/><path class="cls-1" d="M78.35,171.94l-1.62-1.45,7.35-6.55.15.12c-1.08,1.44-2.15,2.88-3.25,4.31-.78,1-1.62,2-2.41,3a2.15,2.15,0,0,0-.26.64Z"/><path class="cls-1" d="M225.91,126.08l1.6-.68a3.57,3.57,0,0,1,1.21-.38c-5.54,3.69-11.82,5.83-17.77,8.67l-.25-.46A22.81,22.81,0,0,1,213,132c2-.86,4.08-1.62,6.09-2.49a5.49,5.49,0,0,0,1.27-1,2.91,2.91,0,0,0,.23.38c1.8-.83,3.6-1.69,5.39-2.55C226,126.28,225.92,126.15,225.91,126.08Z"/><path class="cls-1" d="M182,138.89l2.62-1.73a130.73,130.73,0,0,1,15.22-7.32l-18.45,9.7Z"/><path class="cls-1" d="M94.72,122.1l-1,.17a12.45,12.45,0,0,1,8-4.56l-2.29,2.42,0,0c-1,.41-2,.82-3,1.25-.61.26-1.19.58-1.78.87Z"/><path class="cls-1" d="M216.83,132.24a76.76,76.76,0,0,1,15.1-6.81l.16.39Z"/><path class="cls-1" d="M92.3,195.93c-2.21-3.42-4.43-6.84-6.61-10.27-.08-.11.14-.41.38-1l6.68,11Z"/><path class="cls-1" d="M76.71,170.67c1,1.28,1.93,2.57,2.91,3.85.51.67.37,1.14-.49,1.49-1.11-1.3-2.27-2.59-3.32-4-.17-.23.19-.86.3-1.31Z"/><path class="cls-1" d="M102.1,101.68l-3.46,2c-.17-2.37,4.58-4.62,7.16-4l-3.73,2.1Z"/><path class="cls-1" d="M229,137.89l-16.55,6.5C213.7,143.25,226.08,138.22,229,137.89Z"/><path class="cls-1" d="M70.68,168.47a28.34,28.34,0,0,1,7.76,7.67Z"/><path class="cls-1" d="M78.31,172l4.82-3.27c-.87,1.82-2.75,3-3.31,5.33l1.62-.73-1.07,1.46c-.7-1-1.36-1.91-2-2.82Z"/><path class="cls-1" d="M219.44,135.67l10.37-5.06.29.6-10.47,4.86Z"/><path class="cls-1" d="M215.79,134.53l12.45-5.47.21.48L216,134.89Z"/><path class="cls-1" d="M141.59,205.38l2.23-1.4,10-6.3.14.18c-.68.51-1.33,1.09-2.05,1.54-3.16,2-6.34,4-9.52,5.94a3.57,3.57,0,0,1-.76.31s-.08-.05-.08-.08A1.39,1.39,0,0,1,141.59,205.38Z"/><path class="cls-1" d="M206.58,154l-1,1.23.86-.22c0,2.07-.12,2.26-1.55,2.61-1-2.72-.86-3.08,1.42-3.88Z"/><path class="cls-1" d="M142.07,199.72l3.92-3.57c.79-.23.33.22.17.37-.92.89-1.91,1.71-2.8,2.62-2,2-3.91,4.09-5.86,6.14l-.43-.42Z"/><path class="cls-1" d="M214.41,139.74l11.49-4.69.19.47-11.55,4.55Z"/><path class="cls-1" d="M99.83,210.22l5,12.32-.32.13q-2.52-6.13-5-12.28Z"/><path class="cls-1" d="M217.51,99.83l-15.28,3.36-.09-.13a6.16,6.16,0,0,1,1.35-.64c4.52-.92,9.06-1.8,13.6-2.68a2.24,2.24,0,0,1,.45,0Z"/><path class="cls-1" d="M210.48,144.58c0-2.32,0-2.32,1.84-2.83l-.52.89,3.41-.86.06.17Z"/><path class="cls-1" d="M222.68,133.56l-10.21,5-.14-.29A44.71,44.71,0,0,1,222.68,133.56Z"/><path class="cls-1" d="M238.36,151.06l-7.54,4.3-.18-.32c2.59-1.3,4.66-3.5,7.52-4.32Z"/><path class="cls-1" d="M214.91,147.41l-5.12,2.92C209.85,148.82,211.6,147.78,214.91,147.41Z"/><path class="cls-1" d="M209.53,147.31a9.57,9.57,0,0,1,1.61-1.13,31.09,31.09,0,0,1,5.12-1.81q-3.19,1.74-6.41,3.46Z"/><path class="cls-1" d="M98,106c1.48-2.89,3.76-3.86,7-3.63A12.9,12.9,0,0,0,98,106Z"/><path class="cls-1" d="M207.87,132.28l7.51-3.15.17.39-7.49,3.29Z"/><path class="cls-1" d="M100.57,122.49c-1.34,1.84-3.53,2.05-5.4,2.87a9.37,9.37,0,0,1,5.4-2.85Z"/><path class="cls-1" d="M96.29,142.86a11,11,0,0,1,7.2-1.82Z"/><path class="cls-1" d="M215.92,117.88l-6.72,2.46-.15-.38,6.66-2.7Z"/><path class="cls-1" d="M141.42,190.92l-1.63,1.14c0-.18,0-.42.11-.53,1.52-1.6,3.06-3.19,4.59-4.78l.38.2c-.05.25,0,.58-.17.74-.73.78-1.51,1.5-2.27,2.25Z"/><path class="cls-1" d="M100,100.18c.66-1.19,5.26-2.63,7.52-2.13Z"/><path class="cls-1" d="M175.29,181.09l-9.76,5.14-.15-.29,9.75-5.12Z"/><path class="cls-1" d="M190.76,169.35l-5.53,3.86A9.6,9.6,0,0,1,190.76,169.35Z"/><path class="cls-1" d="M233.45,127.06,228,129.15l-.21-.54,5.47-2.11Z"/><path class="cls-1" d="M76,170.29c-1.06,1.06-1.22,1-2.62-.44C74.6,168.57,74.6,168.57,76,170.29Z"/><path class="cls-1" d="M228.08,136.61l-8.72,3.21-.11-.27,8.7-3.27Z"/><path class="cls-1" d="M133,206.3l-5.88,6.81-.28-.24,5.91-6.79Z"/><path class="cls-1" d="M222.47,144.32l-6.82,3.28-.2-.43,6.83-3.15Z"/><path class="cls-1" d="M227.25,154.17l6-2.63.14.3-6,2.8Z"/><path class="cls-1" d="M82.23,178.31c-.06-1.07,2.94-4.93,4-5.17Z"/><path class="cls-1" d="M210,151.6l7-3.18.14.28-7,3.3Z"/><path class="cls-1" d="M94.72,122.1l0,.11,2.58-.86.08.14-3.65,2.67C93.34,123.07,94.07,122.6,94.72,122.1Z"/><path class="cls-1" d="M83.11,180.82l2.78,3.6-.15.29c-.27,0-.68,0-.79-.15-.75-1.15-1.44-2.34-2.14-3.51Z"/><path class="cls-1" d="M237.26,163.33l-5.19,3C232.42,165.22,235,163.83,237.26,163.33Z"/><path class="cls-1" d="M214.58,121l-6.53,2.66-.13-.29,6.48-2.76Z"/><path class="cls-1" d="M191.14,168l4.8-2.36.21.45-4.83,2.3Z"/><path class="cls-1" d="M111.75,231.54c1.8-1.9,3.61-3.8,5.41-5.71l.25.24L112,231.76Z"/><path d="M225.91,126.08c0,.07.05.2,0,.21-1.79.86-3.59,1.72-5.39,2.55a2.91,2.91,0,0,1-.23-.38Z"/><path class="cls-1" d="M163,192.22l6.58-4.15.14.21-6.52,4.21Z"/><path class="cls-1" d="M226.14,137.84l6.29-2.22.16.46-6.36,2Z"/><path class="cls-1" d="M105,103.9c-2.59,0-4.72,1.1-6.9,2.9C100,104.24,102.35,103.78,105,103.9Z"/><path class="cls-1" d="M204.23,154.06c-.52-1.1-.27-1.32,1.74-1.67C206.18,153.32,206,153.47,204.23,154.06Z"/><path class="cls-1" d="M91.54,140.58c.5-1.8,1.87-3,3.23-4.2l-2.94,4.37Z"/><path class="cls-1" d="M202.8,162c.31-1,.61-2,1-3.1C204.47,160.33,204,161.84,202.8,162Z"/><path class="cls-1" d="M153.53,180.22,152.06,185l-.35-.11c-.13-1.79,1.08-3.19,1.48-4.83Z"/><path class="cls-1" d="M224,136.92l6.45-3,.14.28-6.47,3Z"/><path class="cls-1" d="M207.65,156.29c-.46-1.81-.39-2,1-2.39l-.63,2.53Z"/><path class="cls-1" d="M189.2,142.4l1.28,1.53-3-.38-.11-.24Z"/><path class="cls-1" d="M161.29,181.3l6.54-.8,0,.42-6.57.56Z"/><path class="cls-1" d="M177.12,173.85l-5.53,1.65-.09-.31,5.52-1.68Z"/><path class="cls-1" d="M226.28,140.49l-5.68,2.23-.11-.26,5.68-2.27Z"/><path class="cls-1" d="M226.16,144.07l4.64-1.9.15.34-4.62,2Z"/><path d="M134.38,203.11l3.14-4.28.24.16-1.12,1.85Z"/><path class="cls-1" d="M230.58,133.46l-4.38,1.32-.12-.37,4.36-1.39Z"/><path class="cls-1" d="M71.57,167.83l2.46.41-1.4,1.3c-.38-.64-.7-1.19-1-1.75Z"/><path class="cls-1" d="M71.57,167.83l0,0-3.13-2.31.28-.34C69.7,166,71.19,166.29,71.57,167.83Z"/><path class="cls-1" d="M130.86,211l-3.74,4.13-.19-.17c1.23-1.39,2.45-2.79,3.68-4.19Z"/><path class="cls-1" d="M197.28,124.9l5.39-2.6.11.24-5.38,2.6Z"/><path class="cls-1" d="M93.8,142.12c-.28.36-.55.73-.86,1.07-.5.56-1,1.1-1.53,1.64l-.31-.28c.66-.8,1.31-1.61,2-2.37.11-.12.43,0,.66,0Z"/><path class="cls-1" d="M210.76,153.6c-.09-.58,0-1,.65-1.23a17.78,17.78,0,0,1,2.88-.85l-3.54,2.08Z"/><path class="cls-1" d="M229.93,148.81l4.38-2.24.15.29-4.36,2.27Z"/><path class="cls-1" d="M106.91,228c.53-.38,1-.76,1.6-1.11,0,0,.24.17.36.26l-1,1.39C107,229.42,107,228.54,106.91,228Z"/><path class="cls-1" d="M80.43,175.88c.42.77,1.31,1.27.34,2.21C80.17,177.46,79.46,176.93,80.43,175.88Z"/><path class="cls-1" d="M90.36,147.14v-1.58l1.69-.36-1.42,2Z"/><path class="cls-1" d="M222.52,153.49l-3.46,1.77-.15-.27,3.45-1.8Z"/><path class="cls-1" d="M212.25,126.88l2.7-1.28.18.4-2.8,1.25Z"/><path class="cls-1" d="M212.9,135c-.35-1.17-.05-1.91,1.14-2-.18.35-.34.7-.53,1S213.1,134.68,212.9,135Z"/><path class="cls-1" d="M95.91,202.74l-1.88-4,.21-.1,1.92,3.91Z"/><path class="cls-1" d="M170.31,191.22l2.9-1.66.19.36-3,1.52Z"/><path class="cls-1" d="M204.93,160.11c-.17-1.59-.17-1.59.91-2a8.5,8.5,0,0,1-.33.91C205.35,159.33,205.16,159.67,204.93,160.11Z"/><path class="cls-1" d="M213.93,134.6l3-1.69.16.27-2.94,1.71Z"/><path class="cls-1" d="M92.8,130.77c0-1.57,1.3-1.69,2.11-2.22Z"/><path class="cls-1" d="M96.7,106.68l-1,3.3-.27-.08,1-3.32Z"/><path class="cls-1" d="M142.86,196.42l-2.59,2.73,0,.06,2.59-2.74Z"/><path class="cls-1" d="M233.27,132,229.16,133l-.09-.44,4.2-.65Z"/><path class="cls-1" d="M47.89,118.55a21.31,21.31,0,0,1-2.18,9.86,2.13,2.13,0,0,1-2.07,1.27c-4.26,0-8-1-10.47-4.78a13.11,13.11,0,0,1-1.86-7.79,2.6,2.6,0,0,1,.8-1.41,13,13,0,0,1,8.5-3.93c1.78-.2,3.59-.07,5.38-.13.88,0,1.18.4,1.26,1.2C47.44,114.74,47.67,116.64,47.89,118.55Z"/><path class="cls-1" d="M67.5,96.42c-2.41-.32-4.82-.6-7.22-1-.39-.06-1-.56-1-.87A17.8,17.8,0,0,1,62.39,83c1.71-2.38,4-2.3,6.42-1.93,6.66,1,9.33,6.06,9.31,11.84a1.71,1.71,0,0,1-.79,1.16C74.93,95.62,71.35,96.37,67.5,96.42Z"/><path class="cls-1" d="M43.19,101.11c-3.8,2.87-7.62,5.36-12.51,5.37-2.48,0-3.06-.44-4-2.72-2.36-5.56.06-10.24,5-13.13a1.86,1.86,0,0,1,1.55.15,31.9,31.9,0,0,1,4.64,3.12A24.6,24.6,0,0,1,43.19,101.11Z"/><path class="cls-1" d="M65.37,111.53C67.32,110,69.1,108.36,71,107a21.93,21.93,0,0,1,9.15-4.23,1.25,1.25,0,0,1,1.57.83c2.76,5.8.44,10.66-4.54,13.64a3.88,3.88,0,0,1-2.31.22C70.92,117,68.11,114.57,65.37,111.53Z"/><path class="cls-1" d="M50.62,92.19c-4.15-2.23-7.91-4.63-10.3-8.71a2.51,2.51,0,0,1,.15-3.13c3-4.07,6.62-5.21,11.07-3.46a2.8,2.8,0,0,1,2,2.54,28.34,28.34,0,0,1-.08,5.45A19.71,19.71,0,0,1,50.62,92.19Z"/><path class="cls-1" d="M60.71,117.15C63.65,119.46,66,122,67,125.63a4.48,4.48,0,0,1-.73,4.16c-2.22,2.94-5,4.73-8.74,3.89-3.47-.79-3.46-.55-2.84-4C55.51,125,57.88,121,60.71,117.15Z"/><path class="cls-1" d="M92.34,93.19a9.43,9.43,0,0,1-1.67,1.11c-3.79,1.37-7.59,2.7-11.39,4-3,1-6,2-8.93,3.1q-5.23,1.91-10.41,3.94c-.54.21-.9.81-1.41,1.13s-1.05.63-1.48.52a1.44,1.44,0,0,1-.58-1.31A1.5,1.5,0,0,0,55.9,104c-2.83-2.8-5.63-5.64-8.42-8.49a2.16,2.16,0,0,1-.29-.81c.34,0,.76-.18,1,0,1,.6,2,1.3,3,2,.32.22.63.62,1,.64,1.57.09,2.54,1.14,3.67,2A15,15,0,0,0,59,101.17a5,5,0,0,0,2.28.1,33.4,33.4,0,0,0,4.58-.62c3.26-.77,6.53-1.53,9.7-2.59a9,9,0,0,0,4.9-3.87c1.31-2.14,3-3.17,5.62-2.43C88,92.32,90,92.67,92.34,93.19Z"/><path class="cls-1" d="M30.88,111.78c-.15,1.87-.36,3.88-.47,5.9,0,.9.17,1.82.17,2.73a11.9,11.9,0,0,1-.25,2.23c-.16.88-.4,1.75-.62,2.62a9,9,0,0,1-.33.86,3.26,3.26,0,0,1-.9-.43,21.33,21.33,0,0,1-5.06-7.89,32.26,32.26,0,0,1-2.58-14.25,21.36,21.36,0,0,1,.36-2.38h.47c.11.67.22,1.34.34,2,.56,3.26,1.13,6.51,1.69,9.76.12.73.38,1,1.21.79,1.6-.47,3.24-.78,4.85-1.23A4.16,4.16,0,0,0,30.88,111.78Z"/><path class="cls-1" d="M85.4,117a8.44,8.44,0,0,1-.39,1.39,34.57,34.57,0,0,1-5.59,8.47,35.61,35.61,0,0,1-10,8.31A19.27,19.27,0,0,1,66,136.54c-1.19.36-1.45-.26-1.46-1.41,0-2.2,1.47-3.39,2.59-4.9.73-1,1.26-2.12,1.93-3.15.15-.24.59-.54.76-.47a23.1,23.1,0,0,1,3.89,1.75c.75.47,1.17.49,1.7-.14L83.93,118c.36-.42.74-.83,1.11-1.24Z"/><path class="cls-1" d="M46.67,70.75a10.06,10.06,0,0,1,1.59-.49,33.15,33.15,0,0,1,14.45,1.16c3.19,1,6.24,2.41,9.33,3.69a10.1,10.1,0,0,1,1.69,1.12l-.17.5a14.16,14.16,0,0,1-2.35-.34c-2.41-.72-4.78-1.57-7.19-2.29a75,75,0,0,0-14.5-2.44c-.93-.09-1.85-.22-2.78-.34Z"/><path class="cls-1" d="M45.81,107.23c-2.86.67-5.4,1.84-8.18,1.22l-.15-.37a4.94,4.94,0,0,1,1-.74c1-.39,2-.72,3.06-1,.8-.22,1.51-.4,1.71-1.4.09-.4.57-.73,1-1.23Z"/><path class="cls-1" d="M67.05,113.71c-1.71,2.15-1.9,2.17-3.95.53L65.22,112Z"/><path class="cls-1" d="M56.43,90.15c-.19,1.17-.35,2.33-.59,3.48,0,.14-.48.33-.66.27s-.65-.44-.61-.57c.32-1.14.72-2.25,1.09-3.37Z"/><path class="cls-1" d="M106.94,91.07l-3.19.51-.08-.44,3.19-.53Z"/><path class="cls-1" d="M195.51,75l-2.4,7.51-.4-.1c.36-2.1.67-4.21,1.14-6.29.13-.55.75-1,1.15-1.46Z"/><path class="cls-1" d="M190.08,84c.35-1.89.63-3.8,1.1-5.66.16-.62.81-1.12,1.23-1.68l.49.38L190.39,84Z"/><path class="cls-1" d="M197.2,73.64q-1,3.52-2,7l-.35-.1c.53-2.39.26-5,1.84-7.11Z"/><path class="cls-1" d="M198.41,75c-.57,1.76-1.15,3.52-1.72,5.28l-.36-.12A9.61,9.61,0,0,1,198,74.88Z"/><path class="cls-1" d="M186.89,79.05l-4.23,3.09c.19-1,2-2.41,4.05-3.34Z"/><path class="cls-1" d="M190,80.89l-1.18,2.77-.24-.07,1.2-4.63.41.09c-.08.62-.15,1.25-.21,1.87Z"/><path class="cls-1" d="M177.3,85.18l3.56-2.59C180.59,83.53,179.36,84.52,177.3,85.18Z"/><path class="cls-1" d="M183.67,87.13a4.44,4.44,0,0,1,1.58-4Z"/><path class="cls-1" d="M182.19,83.51c.05-1.08,1.15-1.14,1.73-1.71l.3.3-1.71,1.7Z"/><path class="cls-1" d="M213.92,56.43l-.24-2.5.34,0,.43,2.48Z"/><path class="cls-1" d="M212.84,51.17l.6,3-.34.07-.59-3Z"/><path class="cls-1" d="M173.84,46.73l3.31-7.67.43.18c-.4,1-.78,2-1.2,3-.49,1.17-1,2.36-1.54,3.49-.2.4-.68.66-1,1Z"/><path class="cls-1" d="M171.21,55.13l-.59,1.69h-.16V55.11c.23-1.29.42-2.59.7-3.88a9.06,9.06,0,0,1,.57-1.43l.33.14C171.78,51.67,171.49,53.4,171.21,55.13Z"/><path class="cls-1" d="M172.45,53.16l.37-4.38.48,0c-.14,1.45-.29,2.9-.44,4.36Z"/><path class="cls-1" d="M169.15,54.92l-.84,4.8-.3,0,.72-4.82Z"/><path class="cls-1" d="M72.87,52.71l-.11-1.18c1.2.29,1.36.6,1,1.83l-.92-.69Z"/><path class="cls-1" d="M119.53,42.18l1.43,3.3-.31.14C119.75,44.72,119.73,43.4,119.53,42.18Z"/><path class="cls-1" d="M122.75,45.87l-1.23-3,.23-.11,1.44,2.94Z"/><path class="cls-1" d="M200.92,62.48l5.19-.24c-1.15,1.17-3.4,1.57-5.8,1.18l2.53-11.71.35,0c.12,1.72.22,3.44.37,5.16.05.6.3,1.18.31,1.77a1.79,1.79,0,0,1-.47,1.1c-.5.51-1.14.87-1.65,1.37A7.89,7.89,0,0,0,200.92,62.48Z"/><path class="cls-1" d="M199.51,65.77l.46-1.35,3.27,1.06-.06.29Z"/><path class="cls-1" d="M201.44,61.79l2.26-1.63.33.17c-.17.35-.25.86-.53,1a11.18,11.18,0,0,1-1.93.63Z"/><path d="M160.43,209.58l-4.14,2.64-.22-.39,4.39-2.23Z"/></g></g></svg>